<svg width="28" height="28" viewBox="0 0 28 28" fill="none" xmlns="http://www.w3.org/2000/svg">
<path d="M15.4156 22.683C15.2557 22.6168 15.119 22.5047 15.0229 22.3608C14.9267 22.2169 14.8753 22.0478 14.8753 21.8747L14.8753 14.8747L4.37529 14.8747C4.14323 14.8747 3.92067 14.7825 3.75657 14.6184C3.59248 14.4543 3.50029 14.2318 3.50029 13.9997C3.50029 13.7676 3.59248 13.5451 3.75657 13.381C3.92067 13.2169 4.14323 13.1247 4.37529 13.1247L14.8753 13.1247L14.8753 6.12471C14.8752 5.95155 14.9264 5.78225 15.0225 5.63823C15.1187 5.49421 15.2554 5.38195 15.4153 5.31567C15.5753 5.24938 15.7514 5.23205 15.9212 5.26587C16.091 5.29969 16.247 5.38314 16.3694 5.50565L24.2444 13.3806C24.3257 13.4619 24.3902 13.5584 24.4343 13.6646C24.4783 13.7709 24.501 13.8847 24.501 13.9997C24.501 14.1147 24.4783 14.2286 24.4343 14.3348C24.3902 14.441 24.3257 14.5375 24.2444 14.6188L16.3694 22.4938C16.2469 22.6161 16.0909 22.6994 15.9212 22.7331C15.7514 22.7667 15.5755 22.7493 15.4156 22.683Z" fill="white"/>
</svg>
