<svg width="28" height="28" viewBox="0 0 28 28" fill="none" xmlns="http://www.w3.org/2000/svg">
<path d="M15.4156 22.682C15.2557 22.6158 15.119 22.5037 15.0229 22.3598C14.9267 22.216 14.8753 22.0468 14.8753 21.8737L14.8753 14.8737L4.37529 14.8737C4.14323 14.8737 3.92067 14.7815 3.75657 14.6175C3.59248 14.4534 3.50029 14.2308 3.50029 13.9987C3.50029 13.7667 3.59248 13.5441 3.75657 13.38C3.92067 13.2159 4.14323 13.1237 4.37529 13.1237L14.8753 13.1237L14.8753 6.12374C14.8752 5.95058 14.9264 5.78127 15.0225 5.63725C15.1187 5.49323 15.2554 5.38097 15.4153 5.31469C15.5753 5.24841 15.7514 5.23108 15.9212 5.2649C16.091 5.29872 16.247 5.38216 16.3694 5.50467L24.2444 13.3797C24.3257 13.4609 24.3902 13.5574 24.4343 13.6637C24.4783 13.7699 24.501 13.8837 24.501 13.9987C24.501 14.1137 24.4783 14.2276 24.4343 14.3338C24.3902 14.44 24.3257 14.5365 24.2444 14.6178L16.3694 22.4928C16.2469 22.6151 16.0909 22.6984 15.9212 22.7321C15.7514 22.7658 15.5755 22.7483 15.4156 22.682Z" fill="#13274D"/>
</svg>
