<svg width="28" height="28" viewBox="0 0 28 28" fill="none" xmlns="http://www.w3.org/2000/svg">
<g clip-path="url(#clip0_84_265)">
<path d="M20.125 9.79672V9.1875C20.125 6.44438 15.9873 4.375 10.5 4.375C5.01266 4.375 0.875 6.44438 0.875 9.1875V13.5625C0.875 15.8473 3.74609 17.663 7.875 18.2066V18.8125C7.875 21.5556 12.0127 23.625 17.5 23.625C22.9873 23.625 27.125 21.5556 27.125 18.8125V14.4375C27.125 12.1734 24.3447 10.3556 20.125 9.79672ZM6.125 16.0639C3.98234 15.4656 2.625 14.4802 2.625 13.5625V12.0236C3.5175 12.6558 4.71297 13.1655 6.125 13.5078V16.0639ZM14.875 13.5078C16.287 13.1655 17.4825 12.6558 18.375 12.0236V13.5625C18.375 14.4802 17.0177 15.4656 14.875 16.0639V13.5078ZM13.125 21.3139C10.9823 20.7156 9.625 19.7302 9.625 18.8125V18.3564C9.91266 18.3673 10.2036 18.375 10.5 18.375C10.9244 18.375 11.3389 18.3608 11.7458 18.3367C12.1978 18.4985 12.6582 18.6358 13.125 18.748V21.3139ZM13.125 16.4336C12.2559 16.562 11.3785 16.626 10.5 16.625C9.62148 16.626 8.74409 16.562 7.875 16.4336V13.8316C8.74538 13.945 9.62226 14.0012 10.5 14C11.3777 14.0012 12.2546 13.945 13.125 13.8316V16.4336ZM20.125 21.6836C18.3843 21.9388 16.6157 21.9388 14.875 21.6836V19.075C15.7451 19.192 16.6221 19.2504 17.5 19.25C18.3777 19.2512 19.2546 19.195 20.125 19.0816V21.6836ZM25.375 18.8125C25.375 19.7302 24.0177 20.7156 21.875 21.3139V18.7578C23.287 18.4155 24.4825 17.9058 25.375 17.2736V18.8125Z" fill="#0556F2"/>
</g>
<defs>
<clipPath id="clip0_84_265">
<rect width="28" height="28" fill="white"/>
</clipPath>
</defs>
</svg>
