<svg width="32" height="32" viewBox="0 0 32 32" fill="none" xmlns="http://www.w3.org/2000/svg">
<rect width="32" height="32" fill="white"/>
<path d="M11.6562 21V10.8145H18.3965V12.5918H13.8027V15.3877H17.9521V17.1309H13.8027V21H11.6562Z" fill="#13274D"/>
<path d="M20.2526 21.1299C19.9153 21.1299 19.6305 21.016 19.3981 20.7881C19.1657 20.5602 19.0495 20.2777 19.0495 19.9404C19.0495 19.6032 19.1657 19.3206 19.3981 19.0928C19.6305 18.8649 19.9153 18.751 20.2526 18.751C20.5898 18.751 20.8746 18.8649 21.1071 19.0928C21.3395 19.3206 21.4557 19.6032 21.4557 19.9404C21.4557 20.2777 21.3395 20.5602 21.1071 20.7881C20.8746 21.016 20.5898 21.1299 20.2526 21.1299Z" fill="#13274D"/>
</svg>
