<svg width="29" height="29" viewBox="0 0 29 29" fill="none" xmlns="http://www.w3.org/2000/svg">
<g clip-path="url(#clip0_84_386)">
<path d="M23.6705 15.1731L17.131 21.787C16.9708 21.9491 16.78 22.0778 16.5697 22.1657C16.3595 22.2535 16.1339 22.2988 15.906 22.2989H8.73861L5.49455 25.5473C5.41325 25.6286 5.31674 25.6931 5.21052 25.7371C5.1043 25.7811 4.99046 25.8037 4.87549 25.8037C4.76052 25.8037 4.64667 25.7811 4.54045 25.7371C4.43423 25.6931 4.33772 25.6286 4.25642 25.5473C4.17513 25.466 4.11064 25.3695 4.06664 25.2633C4.02265 25.157 4 25.0432 4 24.9282C4 24.8133 4.02265 24.6994 4.06664 24.5932C4.11064 24.487 4.17513 24.3905 4.25642 24.3092L6.72721 21.8395L14.1395 14.4282H23.3599C23.4461 14.4284 23.5303 14.454 23.6021 14.5019C23.6738 14.5498 23.7297 14.6178 23.7629 14.6973C23.7961 14.7769 23.805 14.8645 23.7886 14.9492C23.7721 15.0338 23.7311 15.1117 23.6705 15.1731ZM24.202 3.77182C22.8595 2.66695 21.1537 2.1013 19.417 2.185C17.6803 2.2687 16.0368 2.99577 14.8067 4.22464L13.7567 5.26151C13.674 5.34256 13.6268 5.45308 13.6255 5.56886V12.4595L19.6411 6.44386C19.8065 6.28669 20.0268 6.20036 20.255 6.20328C20.4832 6.20621 20.7012 6.29814 20.8625 6.45949C21.0239 6.62085 21.1158 6.83884 21.1187 7.06701C21.1216 7.29518 21.0353 7.51546 20.8781 7.68089L15.8906 12.6782H25.5572C25.6375 12.6784 25.7164 12.6564 25.7851 12.6148C25.8537 12.5731 25.9096 12.5133 25.9466 12.442C26.6963 11.0164 26.9322 9.37608 26.6145 7.79701C26.2967 6.21793 25.4448 4.79648 24.202 3.77182ZM7.37252 18.719L11.8755 14.216V8.16761C11.8753 8.08138 11.8497 7.99712 11.8018 7.92541C11.754 7.8537 11.686 7.79774 11.6064 7.76455C11.5268 7.73136 11.4392 7.72243 11.3545 7.73887C11.2699 7.75532 11.192 7.79641 11.1306 7.85698L7.13846 11.8032C6.97544 11.9653 6.84617 12.1581 6.75812 12.3704C6.67008 12.5827 6.62499 12.8104 6.62549 13.0403V18.4095C6.62542 18.4961 6.65104 18.5807 6.69911 18.6527C6.74718 18.7247 6.81553 18.7809 6.89552 18.814C6.9755 18.8471 7.06352 18.8558 7.14843 18.8389C7.23335 18.822 7.31133 18.7803 7.37252 18.719Z" fill="#0556F2"/>
</g>
<defs>
<clipPath id="clip0_84_386">
<rect width="28" height="28" fill="white" transform="translate(0.5 0.427856)"/>
</clipPath>
</defs>
</svg>
