<svg width="82" height="22" viewBox="0 0 82 22" fill="none" xmlns="http://www.w3.org/2000/svg">
<path d="M0 21.5195V1.14844H13.4805V4.70312H4.29297V10.2949H12.5918V13.7812H4.29297V21.5195H0ZM15.1282 21.5195V6.23438H19.3528V21.5195H15.1282ZM17.2337 4.2793C16.6048 4.2793 16.067 4.06966 15.6204 3.65039C15.1738 3.23112 14.9505 2.72526 14.9505 2.13281C14.9505 1.54036 15.1738 1.03906 15.6204 0.628906C16.067 0.209635 16.6048 0 17.2337 0C17.8717 0 18.414 0.209635 18.8606 0.628906C19.3072 1.03906 19.5305 1.54036 19.5305 2.13281C19.5305 2.72526 19.3072 3.23112 18.8606 3.65039C18.414 4.06966 17.8717 4.2793 17.2337 4.2793ZM25.7994 12.6875V21.5195H21.5748V6.23438H25.731V8.95508H25.8814C26.2278 8.05273 26.7792 7.3418 27.5357 6.82227C28.2922 6.30273 29.2401 6.04297 30.3795 6.04297C31.4367 6.04297 32.3573 6.27539 33.1412 6.74023C33.9341 7.20508 34.5494 7.86589 34.9869 8.72266C35.4244 9.57943 35.6431 10.6048 35.6431 11.7988V21.5195H31.4185V12.5508C31.4185 11.6211 31.177 10.8919 30.6939 10.3633C30.2108 9.82552 29.5455 9.55664 28.6978 9.55664C28.1327 9.55664 27.6314 9.68424 27.1939 9.93945C26.7564 10.1855 26.4146 10.541 26.1685 11.0059C25.9224 11.4707 25.7994 12.0312 25.7994 12.6875ZM44.8241 21.8203C43.2564 21.8203 41.9028 21.5013 40.7635 20.8633C39.6242 20.2253 38.7492 19.3184 38.1385 18.1426C37.537 16.9577 37.2362 15.5586 37.2362 13.9453C37.2362 12.3776 37.537 11.0013 38.1385 9.81641C38.7492 8.63151 39.606 7.70638 40.7088 7.04102C41.8208 6.37565 43.1242 6.04297 44.619 6.04297C45.6307 6.04297 46.5741 6.20703 47.4491 6.53516C48.3241 6.85417 49.0897 7.33724 49.7459 7.98438C50.4022 8.6224 50.9126 9.42904 51.2772 10.4043C51.6418 11.3704 51.8241 12.5052 51.8241 13.8086V14.957H38.9178V12.3457H49.7733L47.8045 13.0293C47.8045 12.2546 47.686 11.5801 47.4491 11.0059C47.2121 10.4316 46.8566 9.98958 46.3827 9.67969C45.9178 9.36068 45.339 9.20117 44.6463 9.20117C43.9536 9.20117 43.3657 9.36068 42.8827 9.67969C42.4087 9.9987 42.0441 10.4316 41.7889 10.9785C41.5337 11.5254 41.4061 12.1543 41.4061 12.8652V14.7109C41.4061 15.5404 41.5519 16.2513 41.8436 16.8438C42.1353 17.4271 42.5409 17.8783 43.0604 18.1973C43.589 18.5072 44.1952 18.6621 44.8787 18.6621C45.3527 18.6621 45.7811 18.5938 46.1639 18.457C46.5467 18.3203 46.8748 18.1198 47.1483 17.8555C47.4308 17.5911 47.6405 17.2721 47.7772 16.8984L51.6873 17.1582C51.4959 18.097 51.0949 18.9173 50.4842 19.6191C49.8827 20.3118 49.1034 20.8542 48.1463 21.2461C47.1893 21.6289 46.0819 21.8203 44.8241 21.8203ZM56.3292 6.23438L59.1046 11.5938L61.9894 6.23438H66.3507L61.921 13.8906L66.4601 21.5195H62.1261L59.1046 16.2422L56.1652 21.5195H51.7765L56.3292 13.8906L51.9405 6.23438H56.3292ZM73.9594 21.8203C72.419 21.8203 71.0837 21.4922 69.9535 20.8359C68.8324 20.1706 67.9665 19.25 67.3559 18.0742C66.7543 16.8893 66.4535 15.513 66.4535 13.9453C66.4535 12.3594 66.7543 10.9785 67.3559 9.80273C67.9665 8.61784 68.8324 7.69727 69.9535 7.04102C71.0837 6.37565 72.419 6.04297 73.9594 6.04297C75.5089 6.04297 76.8441 6.37565 77.9652 7.04102C79.0954 7.69727 79.9613 8.61784 80.5629 9.80273C81.1736 10.9785 81.4789 12.3594 81.4789 13.9453C81.4789 15.513 81.1736 16.8893 80.5629 18.0742C79.9613 19.25 79.0954 20.1706 77.9652 20.8359C76.8441 21.4922 75.5089 21.8203 73.9594 21.8203ZM73.9867 18.5117C74.6885 18.5117 75.2764 18.3158 75.7504 17.9238C76.2243 17.5228 76.5798 16.9759 76.8168 16.2832C77.0629 15.5905 77.1859 14.8021 77.1859 13.918C77.1859 13.0247 77.0629 12.2363 76.8168 11.5527C76.5798 10.8691 76.2243 10.3314 75.7504 9.93945C75.2764 9.54753 74.6885 9.35156 73.9867 9.35156C73.2758 9.35156 72.6788 9.54753 72.1957 9.93945C71.7217 10.3314 71.3617 10.8691 71.1156 11.5527C70.8786 12.2363 70.7602 13.0247 70.7602 13.918C70.7602 14.8021 70.8786 15.5905 71.1156 16.2832C71.3617 16.9759 71.7217 17.5228 72.1957 17.9238C72.6788 18.3158 73.2758 18.5117 73.9867 18.5117Z" fill="#13274D"/>
</svg>
