<svg width="32" height="33" viewBox="0 0 32 33" fill="none" xmlns="http://www.w3.org/2000/svg">
<g clip-path="url(#clip0_84_1115)">
<path d="M16.0112 7.74479C16.0673 6.96874 16.3236 6.22047 16.7551 5.57304C17.1866 4.92561 17.7787 4.40113 18.4734 4.0508C19.1682 3.70047 19.9419 3.53626 20.719 3.5742C21.4962 3.61215 22.2502 3.85095 22.9075 4.26729C22.9827 4.31646 23.0432 4.38496 23.0827 4.4656C23.1222 4.54624 23.1393 4.63604 23.1322 4.72556C23.125 4.81508 23.0938 4.90102 23.042 4.97435C22.9902 5.04768 22.9195 5.10569 22.8375 5.14229C21.6949 5.65638 20.7249 6.48941 20.0442 7.54133C19.3634 8.59325 19.0009 9.81932 19 11.0723C19 11.2185 19 11.3648 19.015 11.5085C19.0219 11.5994 19.0038 11.6904 18.9627 11.7717C18.9217 11.8531 18.8591 11.9217 18.7819 11.97C18.7047 12.0184 18.6158 12.0448 18.5247 12.0463C18.4335 12.0478 18.3438 12.0244 18.265 11.9785C17.5283 11.5572 16.9258 10.9361 16.5271 10.1869C16.1283 9.43782 15.9495 8.5912 16.0112 7.74479ZM30 20.6485C30.0018 21.22 29.8435 21.7804 29.543 22.2665C29.2426 22.7525 28.8119 23.1447 28.3 23.3985L28.245 23.4235L23.3913 25.491C23.3433 25.5122 23.2935 25.5289 23.2425 25.541L15.2425 27.541C15.1633 27.5614 15.0818 27.5719 15 27.5723H2C1.46957 27.5723 0.960859 27.3616 0.585786 26.9865C0.210714 26.6114 0 26.1027 0 25.5723V20.5723C0 20.0419 0.210714 19.5331 0.585786 19.1581C0.960859 18.783 1.46957 18.5723 2 18.5723H5.58625L8.41375 15.7435C8.78451 15.3711 9.22539 15.0759 9.71092 14.8748C10.1964 14.6738 10.717 14.571 11.2425 14.5723H17.5C18.0282 14.5722 18.5496 14.6917 19.0251 14.9218C19.5005 15.1519 19.9177 15.4867 20.2454 15.901C20.5731 16.3152 20.8028 16.7983 20.9172 17.314C21.0317 17.8296 21.0279 18.3645 20.9062 18.8785L26.1362 17.676C26.5915 17.5555 27.0685 17.5411 27.5302 17.6339C27.992 17.7268 28.4262 17.9244 28.7995 18.2116C29.1728 18.4988 29.4752 18.8679 29.6833 19.2904C29.8915 19.7129 29.9998 20.1775 30 20.6485ZM28 20.6485C27.9998 20.4832 27.9616 20.3201 27.8882 20.1719C27.8148 20.0238 27.7083 19.8945 27.5769 19.7942C27.4455 19.6938 27.2927 19.6251 27.1305 19.5933C26.9682 19.5616 26.8008 19.5676 26.6413 19.611L26.6025 19.621L18.2275 21.5473C18.154 21.5637 18.079 21.5721 18.0037 21.5723H14C13.7348 21.5723 13.4804 21.4669 13.2929 21.2794C13.1054 21.0919 13 20.8375 13 20.5723C13 20.3071 13.1054 20.0527 13.2929 19.8652C13.4804 19.6776 13.7348 19.5723 14 19.5723H17.5C17.8978 19.5723 18.2794 19.4143 18.5607 19.1329C18.842 18.8516 19 18.4701 19 18.0723C19 17.6745 18.842 17.2929 18.5607 17.0116C18.2794 16.7303 17.8978 16.5723 17.5 16.5723H11.2425C10.9798 16.5714 10.7195 16.6228 10.4768 16.7235C10.2341 16.8241 10.0138 16.972 9.82875 17.1585L7 19.986V25.5723H14.875L22.6787 23.621L27.4287 21.5985C27.6016 21.5075 27.7463 21.3708 27.847 21.2033C27.9477 21.0358 28.0006 20.844 28 20.6485ZM21 11.0723C21 11.9623 21.2639 12.8323 21.7584 13.5724C22.2529 14.3124 22.9557 14.8892 23.7779 15.2297C24.6002 15.5703 25.505 15.6595 26.3779 15.4858C27.2508 15.3122 28.0526 14.8836 28.682 14.2543C29.3113 13.6249 29.7399 12.8231 29.9135 11.9502C30.0872 11.0773 29.9981 10.1725 29.6575 9.35021C29.3169 8.52795 28.7401 7.82514 28.0001 7.33068C27.26 6.83621 26.39 6.57229 25.5 6.57229C24.3065 6.57229 23.1619 7.04639 22.318 7.89031C21.4741 8.73422 21 9.87881 21 11.0723Z" fill="white"/>
</g>
<defs>
<clipPath id="clip0_84_1115">
<rect width="32" height="32" fill="white" transform="translate(0 0.572266)"/>
</clipPath>
</defs>
</svg>
