<svg width="60" height="60" viewBox="0 0 60 60" fill="none" xmlns="http://www.w3.org/2000/svg">
<circle cx="30" cy="30" r="30" fill="white"/>
<path d="M23.6021 21.5649C22.5924 17.7426 25.4748 14 29.4282 14C33.4254 14 36.3149 17.8207 35.2263 21.6669L33.0094 29.5H25.6981L23.6021 21.5649Z" fill="#0556F2"/>
<path d="M35.398 37.4351C36.4076 41.2574 33.5252 45 29.5718 45C25.5746 45 22.6851 41.1793 23.7737 37.3331L25.9906 29.5L33.3019 29.5L35.398 37.4351Z" fill="#0556F2"/>
<path d="M21.5649 35.9829C17.7426 36.9925 14 34.1101 14 30.1568C14 26.1595 17.8207 23.27 21.6669 24.3586L29.5 26.5755V33.8868L21.5649 35.9829Z" fill="#0556F2"/>
<path d="M37.4351 24.7719C41.2574 23.7622 45 26.6446 45 30.598C45 34.5952 41.1793 37.4847 37.3331 36.3962L29.5 34.1792V26.8679L37.4351 24.7719Z" fill="#0556F2"/>
</svg>
