<svg width="42" height="42" viewBox="0 0 42 42" fill="none" xmlns="http://www.w3.org/2000/svg">
<rect x="0.256958" y="0.0317383" width="41.3355" height="41.3355" rx="20.6677" fill="#EBF1FF"/>
<path d="M15.5964 11.0115H26.2532C26.4036 11.0115 26.5519 11.0465 26.6864 11.1138C26.821 11.181 26.938 11.2787 27.0282 11.399L29.644 14.8867V29.4187C29.644 29.6756 29.5419 29.922 29.3602 30.1037C29.1785 30.2854 28.9321 30.3875 28.6752 30.3875H13.1744C12.9174 30.3875 12.671 30.2854 12.4893 30.1037C12.3076 29.922 12.2056 29.6756 12.2056 29.4187V14.8867L14.8213 11.399C14.9116 11.2787 15.0286 11.181 15.1631 11.1138C15.2976 11.0465 15.446 11.0115 15.5964 11.0115ZM27.7064 16.8243H14.1432V28.4499H27.7064V16.8243ZM27.222 14.8867L25.7688 12.9491H16.0808L14.6276 14.8867H27.222ZM18.0184 18.7619V20.6995C18.0184 21.4703 18.3246 22.2096 18.8696 22.7546C19.4147 23.2997 20.1539 23.6059 20.9248 23.6059C21.6956 23.6059 22.4349 23.2997 22.9799 22.7546C23.525 22.2096 23.8312 21.4703 23.8312 20.6995V18.7619H25.7688V20.6995C25.7688 21.9842 25.2584 23.2163 24.35 24.1247C23.4416 25.0331 22.2095 25.5435 20.9248 25.5435C19.6401 25.5435 18.408 25.0331 17.4995 24.1247C16.5911 23.2163 16.0808 21.9842 16.0808 20.6995V18.7619H18.0184Z" fill="#253EA7"/>
</svg>
