<svg width="43" height="42" viewBox="0 0 43 42" fill="none" xmlns="http://www.w3.org/2000/svg">
<rect x="0.904785" y="0.0317383" width="41.3355" height="41.3355" rx="20.6677" fill="#EBFAFF"/>
<path d="M29.3231 30.3875H13.8223C13.5654 30.3875 13.319 30.2854 13.1373 30.1037C12.9556 29.922 12.8535 29.6756 12.8535 29.4187V11.9803C12.8535 11.7233 12.9556 11.4769 13.1373 11.2952C13.319 11.1135 13.5654 11.0115 13.8223 11.0115H29.3231C29.5801 11.0115 29.8265 11.1135 30.0082 11.2952C30.1899 11.4769 30.2919 11.7233 30.2919 11.9803V29.4187C30.2919 29.6756 30.1899 29.922 30.0082 30.1037C29.8265 30.2854 29.5801 30.3875 29.3231 30.3875ZM28.3543 28.4499V12.9491H14.7911V28.4499H28.3543ZM17.6975 15.8555H25.4479V17.7931H17.6975V15.8555ZM17.6975 19.7307H25.4479V21.6683H17.6975V19.7307ZM17.6975 23.6059H25.4479V25.5435H17.6975V23.6059Z" fill="#1F87AD"/>
</svg>
