<svg width="426" height="426" viewBox="0 0 426 426" fill="none" xmlns="http://www.w3.org/2000/svg">
<path d="M332.832 52.4242C337.007 46.8295 335.875 38.875 330.043 35.0391C298.517 14.3046 261.977 2.27387 224.144 0.291739C186.312 -1.69039 148.715 6.45612 115.195 23.7827C108.994 26.9882 107.037 34.7809 110.604 40.7812V40.7812C114.172 46.7815 121.912 48.712 128.138 45.5562C157.341 30.7556 189.981 23.8162 222.822 25.5368C255.662 27.2574 287.398 37.5696 314.895 55.3408C320.758 59.13 328.656 58.0188 332.832 52.4242V52.4242Z" fill="#1CB3F9"/>
<mask id="path-2-inside-1_288_480" fill="white">
<path d="M386.108 179.318C386.476 179.247 386.717 178.891 386.645 178.523C378.83 138.85 357.512 103.101 326.306 77.3665C294.925 51.4873 255.507 37.3521 214.831 37.3919C174.156 37.4318 134.765 51.6442 103.435 77.5847C72.2796 103.381 51.031 139.171 43.2943 178.859C43.2225 179.227 43.4642 179.583 43.8326 179.654V179.654C44.201 179.724 44.5567 179.482 44.6284 179.114C52.306 139.736 73.389 104.225 104.301 78.6309C135.388 52.8917 174.473 38.7897 214.832 38.7502C255.192 38.7106 294.304 52.7361 325.441 78.4143C356.404 103.948 377.556 139.418 385.311 178.78C385.384 179.148 385.74 179.389 386.108 179.318V179.318Z"/>
</mask>
<path d="M386.108 179.318C386.476 179.247 386.717 178.891 386.645 178.523C378.83 138.85 357.512 103.101 326.306 77.3665C294.925 51.4873 255.507 37.3521 214.831 37.3919C174.156 37.4318 134.765 51.6442 103.435 77.5847C72.2796 103.381 51.031 139.171 43.2943 178.859C43.2225 179.227 43.4642 179.583 43.8326 179.654V179.654C44.201 179.724 44.5567 179.482 44.6284 179.114C52.306 139.736 73.389 104.225 104.301 78.6309C135.388 52.8917 174.473 38.7897 214.832 38.7502C255.192 38.7106 294.304 52.7361 325.441 78.4143C356.404 103.948 377.556 139.418 385.311 178.78C385.384 179.148 385.74 179.389 386.108 179.318V179.318Z" stroke="#A09A92" stroke-width="2.67085" stroke-dasharray="9.35 9.35" mask="url(#path-2-inside-1_288_480)"/>
<mask id="path-3-inside-2_288_480" fill="white">
<path d="M413.286 207.566C420.265 207.377 425.807 201.56 425.204 194.606C422.878 167.764 415.476 141.567 403.351 117.421C391.227 93.2753 374.638 71.6916 354.5 53.7933C349.282 49.1559 341.307 50.1268 336.987 55.6105V55.6105C332.667 61.0941 333.643 69.0106 338.823 73.6896C356.068 89.2649 370.3 107.933 380.76 128.765C391.22 149.597 397.692 172.161 399.884 195.295C400.542 202.244 406.308 207.756 413.286 207.566V207.566Z"/>
</mask>
<path d="M413.286 207.566C420.265 207.377 425.807 201.56 425.204 194.606C422.878 167.764 415.476 141.567 403.351 117.421C391.227 93.2753 374.638 71.6916 354.5 53.7933C349.282 49.1559 341.307 50.1268 336.987 55.6105V55.6105C332.667 61.0941 333.643 69.0106 338.823 73.6896C356.068 89.2649 370.3 107.933 380.76 128.765C391.22 149.597 397.692 172.161 399.884 195.295C400.542 202.244 406.308 207.756 413.286 207.566V207.566Z" fill="#FF9494" stroke="#FF9494" stroke-width="2.67085" mask="url(#path-3-inside-2_288_480)"/>
<path d="M101.448 46.5657C97.5616 40.7669 89.6841 39.1871 84.126 43.4108C60.1437 61.6353 40.2592 84.7709 25.835 111.323C11.4107 137.875 2.8241 167.148 0.587841 197.186C0.069572 204.147 5.68228 209.896 12.6623 210.001V210.001C19.6423 210.105 25.3412 204.524 25.9151 197.567C28.0556 171.618 35.5757 146.35 48.0485 123.39C60.5213 100.431 77.6266 80.3693 98.2303 64.4508C103.754 60.1829 105.335 52.3644 101.448 46.5657V46.5657Z" fill="#0556F2"/>
<path d="M169.157 165.197V122.538H171.883V165.197H169.157ZM170.531 161.462C167.874 161.462 165.567 161.05 163.612 160.225C161.657 159.401 160.13 158.202 159.03 156.628C157.931 155.04 157.335 153.116 157.243 150.855H163.337C163.429 152.046 163.796 153.039 164.437 153.833C165.079 154.612 165.919 155.2 166.957 155.597C168.011 155.995 169.179 156.193 170.462 156.193C171.806 156.193 172.99 155.987 174.013 155.575C175.037 155.162 175.839 154.589 176.419 153.856C176.999 153.123 177.29 152.268 177.29 151.29C177.29 150.405 177.03 149.679 176.511 149.114C175.991 148.534 175.274 148.045 174.357 147.648C173.441 147.251 172.364 146.899 171.127 146.594L167.255 145.586C164.445 144.868 162.23 143.776 160.611 142.31C158.992 140.828 158.183 138.858 158.183 136.399C158.183 134.383 158.725 132.626 159.809 131.129C160.894 129.617 162.375 128.441 164.254 127.601C166.148 126.761 168.286 126.341 170.669 126.341C173.097 126.341 175.228 126.761 177.061 127.601C178.893 128.441 180.329 129.602 181.368 131.084C182.406 132.565 182.948 134.268 182.994 136.193H177.015C176.862 134.726 176.213 133.596 175.067 132.802C173.937 131.992 172.448 131.588 170.6 131.588C169.317 131.588 168.21 131.779 167.278 132.16C166.361 132.542 165.659 133.069 165.17 133.741C164.681 134.413 164.437 135.177 164.437 136.032C164.437 136.979 164.72 137.758 165.285 138.369C165.865 138.965 166.598 139.446 167.484 139.812C168.385 140.179 169.302 140.484 170.233 140.729L173.418 141.531C174.701 141.836 175.938 142.248 177.129 142.768C178.321 143.272 179.39 143.913 180.337 144.692C181.299 145.456 182.055 146.388 182.605 147.487C183.17 148.587 183.452 149.878 183.452 151.359C183.452 153.345 182.941 155.101 181.917 156.628C180.894 158.141 179.42 159.324 177.496 160.18C175.571 161.035 173.25 161.462 170.531 161.462ZM200.269 126.799V160.936H194.129V132.825H193.922L185.95 137.934V132.252L194.426 126.799H200.269ZM217.039 161.394C214.564 161.394 212.373 160.981 210.464 160.157C208.554 159.317 207.058 158.171 205.973 156.72C204.904 155.269 204.369 153.627 204.369 151.794C204.369 150.374 204.683 149.06 205.309 147.854C205.935 146.647 206.783 145.639 207.852 144.83C208.936 144.02 210.15 143.501 211.494 143.272V143.066C209.738 142.669 208.318 141.767 207.233 140.362C206.149 138.957 205.607 137.33 205.607 135.482C205.607 133.726 206.095 132.16 207.073 130.786C208.066 129.411 209.425 128.327 211.151 127.533C212.877 126.738 214.839 126.341 217.039 126.341C219.223 126.341 221.178 126.738 222.904 127.533C224.63 128.327 225.989 129.411 226.982 130.786C227.975 132.16 228.471 133.726 228.471 135.482C228.471 137.33 227.921 138.957 226.821 140.362C225.722 141.767 224.317 142.669 222.606 143.066V143.272C223.919 143.501 225.118 144.02 226.203 144.83C227.287 145.639 228.143 146.647 228.769 147.854C229.41 149.06 229.731 150.374 229.731 151.794C229.731 153.627 229.189 155.269 228.104 156.72C227.02 158.171 225.523 159.317 223.614 160.157C221.705 160.981 219.513 161.394 217.039 161.394ZM217.039 156.651C218.322 156.651 219.437 156.43 220.384 155.987C221.331 155.544 222.064 154.925 222.583 154.131C223.102 153.322 223.362 152.398 223.362 151.359C223.362 150.275 223.087 149.312 222.537 148.472C221.987 147.632 221.239 146.976 220.292 146.502C219.345 146.013 218.261 145.769 217.039 145.769C215.817 145.769 214.725 146.013 213.763 146.502C212.816 146.976 212.067 147.632 211.517 148.472C210.983 149.297 210.716 150.259 210.716 151.359C210.716 152.398 210.975 153.322 211.494 154.131C212.014 154.925 212.747 155.544 213.694 155.987C214.641 156.43 215.756 156.651 217.039 156.651ZM217.039 141.095C218.077 141.095 219.001 140.889 219.811 140.477C220.62 140.049 221.262 139.461 221.735 138.713C222.209 137.949 222.446 137.078 222.446 136.101C222.446 135.108 222.216 134.245 221.758 133.512C221.3 132.779 220.666 132.214 219.857 131.817C219.047 131.404 218.108 131.198 217.039 131.198C215.97 131.198 215.023 131.404 214.198 131.817C213.388 132.214 212.755 132.779 212.296 133.512C211.853 134.245 211.632 135.108 211.632 136.101C211.632 137.078 211.861 137.941 212.319 138.69C212.777 139.438 213.411 140.026 214.221 140.454C215.046 140.882 215.985 141.095 217.039 141.095ZM233.855 126.799H241.438L251.564 151.519H251.954L262.103 126.799H269.778V160.936H263.707V137.476H263.432L253.947 160.821H249.502L240.132 137.43H239.811V160.936H233.855V126.799Z" fill="#0A0D14"/>
<path d="M98.9823 197.039H101.048L103.513 201.509H103.622L106.087 197.039H108.152L104.475 203.365V207.13H102.653V203.365L98.9823 197.039ZM113.312 207.266C112.432 207.266 111.64 207.06 110.935 206.65C110.235 206.239 109.682 205.647 109.276 204.875C108.874 204.103 108.673 203.175 108.673 202.092C108.673 201.003 108.874 200.073 109.276 199.301C109.682 198.525 110.235 197.931 110.935 197.52C111.64 197.109 112.432 196.904 113.312 196.904C114.197 196.904 114.988 197.109 115.683 197.52C116.378 197.931 116.929 198.525 117.335 199.301C117.742 200.073 117.945 201.003 117.945 202.092C117.945 203.175 117.742 204.103 117.335 204.875C116.929 205.647 116.378 206.239 115.683 206.65C114.988 207.06 114.197 207.266 113.312 207.266ZM113.312 205.627C113.859 205.627 114.342 205.491 114.762 205.221C115.182 204.95 115.511 204.552 115.751 204.029C115.99 203.5 116.11 202.855 116.11 202.092C116.11 201.324 115.99 200.676 115.751 200.148C115.511 199.62 115.182 199.22 114.762 198.949C114.342 198.678 113.859 198.543 113.312 198.543C112.766 198.543 112.281 198.678 111.856 198.949C111.436 199.22 111.107 199.62 110.868 200.148C110.628 200.676 110.509 201.324 110.509 202.092C110.509 202.855 110.628 203.5 110.868 204.029C111.107 204.552 111.436 204.95 111.856 205.221C112.281 205.491 112.766 205.627 113.312 205.627ZM126.071 197.039H127.893V203.629C127.893 204.351 127.724 204.988 127.385 205.539C127.047 206.085 126.57 206.514 125.956 206.826C125.342 207.133 124.624 207.286 123.803 207.286C122.981 207.286 122.263 207.133 121.649 206.826C121.035 206.514 120.556 206.085 120.213 205.539C119.875 204.988 119.705 204.351 119.705 203.629V197.039H121.534V203.48C121.534 203.904 121.626 204.279 121.811 204.604C121.997 204.929 122.258 205.187 122.597 205.376C122.94 205.561 123.342 205.654 123.803 205.654C124.263 205.654 124.663 205.561 125.001 205.376C125.34 205.187 125.602 204.929 125.787 204.604C125.977 204.279 126.071 203.904 126.071 203.48V197.039ZM129.918 207.13V197.039H133.704C134.48 197.039 135.13 197.175 135.654 197.446C136.182 197.717 136.582 198.096 136.853 198.583C137.124 199.067 137.259 199.629 137.259 200.27C137.259 200.915 137.121 201.475 136.846 201.949C136.575 202.423 136.173 202.789 135.64 203.047C135.108 203.304 134.453 203.433 133.676 203.433H130.988V201.922H133.426C133.882 201.922 134.254 201.859 134.543 201.733C134.837 201.606 135.051 201.421 135.187 201.177C135.327 200.929 135.397 200.626 135.397 200.27C135.397 199.913 135.327 199.608 135.187 199.355C135.047 199.098 134.832 198.904 134.543 198.773C134.254 198.638 133.88 198.57 133.419 198.57H131.746V207.13H129.918ZM135.586 207.13L133.141 202.552H135.133L137.632 207.13H135.586ZM146.828 207.266C145.943 207.266 145.15 207.06 144.45 206.65C143.755 206.239 143.207 205.647 142.805 204.875C142.407 204.103 142.209 203.175 142.209 202.092C142.209 201.003 142.41 200.073 142.812 199.301C143.218 198.525 143.769 197.931 144.464 197.52C145.164 197.109 145.952 196.904 146.828 196.904C147.383 196.904 147.902 196.983 148.385 197.141C148.873 197.299 149.306 197.531 149.686 197.838C150.065 198.141 150.374 198.513 150.614 198.956C150.857 199.394 151.018 199.893 151.094 200.453H149.252C149.203 200.146 149.105 199.875 148.961 199.64C148.821 199.405 148.645 199.206 148.433 199.044C148.225 198.877 147.988 198.753 147.722 198.671C147.455 198.586 147.169 198.543 146.862 198.543C146.311 198.543 145.823 198.68 145.399 198.956C144.974 199.227 144.642 199.629 144.403 200.161C144.164 200.69 144.044 201.333 144.044 202.092C144.044 202.859 144.164 203.507 144.403 204.035C144.647 204.559 144.979 204.956 145.399 205.227C145.823 205.494 146.308 205.627 146.855 205.627C147.157 205.627 147.439 205.588 147.701 205.512C147.963 205.43 148.2 205.311 148.412 205.153C148.629 204.99 148.807 204.796 148.947 204.57C149.092 204.34 149.194 204.076 149.252 203.778H151.094C151.027 204.261 150.878 204.715 150.647 205.139C150.422 205.559 150.124 205.929 149.753 206.25C149.388 206.566 148.959 206.814 148.467 206.995C147.974 207.176 147.428 207.266 146.828 207.266ZM152.821 207.13V197.039H156.607C157.383 197.039 158.033 197.175 158.557 197.446C159.085 197.717 159.485 198.096 159.756 198.583C160.027 199.067 160.162 199.629 160.162 200.27C160.162 200.915 160.025 201.475 159.749 201.949C159.478 202.423 159.076 202.789 158.544 203.047C158.011 203.304 157.356 203.433 156.58 203.433H153.891V201.922H156.329C156.785 201.922 157.158 201.859 157.446 201.733C157.74 201.606 157.954 201.421 158.09 201.177C158.23 200.929 158.3 200.626 158.3 200.27C158.3 199.913 158.23 199.608 158.09 199.355C157.95 199.098 157.735 198.904 157.446 198.773C157.158 198.638 156.783 198.57 156.322 198.57H154.649V207.13H152.821ZM158.489 207.13L156.045 202.552H158.036L160.535 207.13H158.489ZM161.882 207.13V197.039H168.451V198.57H163.711V201.279H168.099V202.789H163.711V205.6H168.478V207.13H161.882ZM173.774 207.13H171.214V205.546H173.679C174.379 205.546 174.964 205.419 175.433 205.166C175.907 204.909 176.262 204.523 176.497 204.008C176.736 203.494 176.855 202.85 176.855 202.078C176.855 201.306 176.738 200.665 176.503 200.155C176.269 199.644 175.919 199.263 175.454 199.01C174.989 198.753 174.413 198.624 173.727 198.624H171.16V197.039H173.835C174.837 197.039 175.697 197.24 176.415 197.642C177.138 198.044 177.693 198.622 178.081 199.376C178.47 200.13 178.664 201.031 178.664 202.078C178.664 203.126 178.47 204.029 178.081 204.787C177.693 205.541 177.133 206.121 176.402 206.528C175.675 206.929 174.799 207.13 173.774 207.13ZM172.176 197.039V207.13H170.347V197.039H172.176ZM182.253 197.039V207.13H180.424V197.039H182.253ZM183.83 198.57V197.039H191.876V198.57H188.761V207.13H186.952V198.57H183.83ZM200.496 207.286C199.711 207.286 199.029 207.164 198.451 206.92C197.873 206.677 197.422 206.322 197.096 205.857C196.771 205.388 196.595 204.819 196.568 204.15H198.37C198.397 204.503 198.505 204.796 198.695 205.031C198.884 205.261 199.133 205.435 199.44 205.552C199.751 205.67 200.097 205.728 200.476 205.728C200.873 205.728 201.223 205.668 201.526 205.546C201.828 205.424 202.065 205.254 202.237 205.038C202.408 204.821 202.494 204.568 202.494 204.279C202.494 204.017 202.417 203.803 202.264 203.636C202.11 203.464 201.898 203.32 201.627 203.202C201.356 203.085 201.038 202.981 200.672 202.891L199.528 202.593C198.697 202.381 198.042 202.058 197.564 201.624C197.085 201.186 196.846 200.604 196.846 199.877C196.846 199.281 197.006 198.762 197.327 198.319C197.647 197.872 198.085 197.525 198.641 197.276C199.2 197.028 199.833 196.904 200.537 196.904C201.255 196.904 201.885 197.028 202.426 197.276C202.968 197.525 203.393 197.868 203.7 198.306C204.007 198.744 204.167 199.247 204.181 199.816H202.413C202.368 199.383 202.176 199.048 201.837 198.814C201.503 198.574 201.063 198.455 200.517 198.455C200.137 198.455 199.81 198.511 199.535 198.624C199.264 198.737 199.056 198.893 198.912 199.091C198.767 199.29 198.695 199.516 198.695 199.769C198.695 200.049 198.778 200.279 198.945 200.459C199.117 200.635 199.334 200.778 199.596 200.886C199.862 200.994 200.133 201.085 200.408 201.157L201.35 201.394C201.729 201.484 202.095 201.606 202.447 201.76C202.799 201.909 203.115 202.098 203.395 202.329C203.679 202.554 203.903 202.83 204.065 203.155C204.232 203.48 204.316 203.861 204.316 204.299C204.316 204.886 204.165 205.406 203.862 205.857C203.56 206.304 203.124 206.654 202.555 206.907C201.986 207.16 201.3 207.286 200.496 207.286ZM210.336 207.266C209.451 207.266 208.659 207.06 207.959 206.65C207.264 206.239 206.715 205.647 206.313 204.875C205.916 204.103 205.717 203.175 205.717 202.092C205.717 201.003 205.918 200.073 206.32 199.301C206.726 198.525 207.277 197.931 207.973 197.52C208.672 197.109 209.46 196.904 210.336 196.904C210.892 196.904 211.411 196.983 211.894 197.141C212.382 197.299 212.815 197.531 213.194 197.838C213.574 198.141 213.883 198.513 214.122 198.956C214.366 199.394 214.526 199.893 214.603 200.453H212.761C212.711 200.146 212.614 199.875 212.47 199.64C212.33 199.405 212.154 199.206 211.941 199.044C211.734 198.877 211.497 198.753 211.23 198.671C210.964 198.586 210.677 198.543 210.37 198.543C209.819 198.543 209.332 198.68 208.907 198.956C208.483 199.227 208.151 199.629 207.912 200.161C207.672 200.69 207.553 201.333 207.553 202.092C207.553 202.859 207.672 203.507 207.912 204.035C208.156 204.559 208.487 204.956 208.907 205.227C209.332 205.494 209.817 205.627 210.363 205.627C210.666 205.627 210.948 205.588 211.21 205.512C211.472 205.43 211.709 205.311 211.921 205.153C212.138 204.99 212.316 204.796 212.456 204.57C212.601 204.34 212.702 204.076 212.761 203.778H214.603C214.535 204.261 214.386 204.715 214.156 205.139C213.93 205.559 213.632 205.929 213.262 206.25C212.896 206.566 212.467 206.814 211.975 206.995C211.483 207.176 210.937 207.266 210.336 207.266ZM220.718 207.266C219.838 207.266 219.045 207.06 218.341 206.65C217.641 206.239 217.088 205.647 216.682 204.875C216.28 204.103 216.079 203.175 216.079 202.092C216.079 201.003 216.28 200.073 216.682 199.301C217.088 198.525 217.641 197.931 218.341 197.52C219.045 197.109 219.838 196.904 220.718 196.904C221.603 196.904 222.393 197.109 223.088 197.52C223.784 197.931 224.335 198.525 224.741 199.301C225.147 200.073 225.35 201.003 225.35 202.092C225.35 203.175 225.147 204.103 224.741 204.875C224.335 205.647 223.784 206.239 223.088 206.65C222.393 207.06 221.603 207.266 220.718 207.266ZM220.718 205.627C221.264 205.627 221.747 205.491 222.167 205.221C222.587 204.95 222.917 204.552 223.156 204.029C223.395 203.5 223.515 202.855 223.515 202.092C223.515 201.324 223.395 200.676 223.156 200.148C222.917 199.62 222.587 199.22 222.167 198.949C221.747 198.678 221.264 198.543 220.718 198.543C220.172 198.543 219.686 198.678 219.262 198.949C218.842 199.22 218.512 199.62 218.273 200.148C218.034 200.676 217.914 201.324 217.914 202.092C217.914 202.855 218.034 203.5 218.273 204.029C218.512 204.552 218.842 204.95 219.262 205.221C219.686 205.491 220.172 205.627 220.718 205.627ZM227.111 207.13V197.039H230.897C231.673 197.039 232.323 197.175 232.847 197.446C233.375 197.717 233.775 198.096 234.046 198.583C234.317 199.067 234.452 199.629 234.452 200.27C234.452 200.915 234.315 201.475 234.039 201.949C233.768 202.423 233.366 202.789 232.834 203.047C232.301 203.304 231.646 203.433 230.87 203.433H228.181V201.922H230.619C231.075 201.922 231.447 201.859 231.736 201.733C232.03 201.606 232.244 201.421 232.38 201.177C232.52 200.929 232.59 200.626 232.59 200.27C232.59 199.913 232.52 199.608 232.38 199.355C232.24 199.098 232.025 198.904 231.736 198.773C231.447 198.638 231.073 198.57 230.612 198.57H228.939V207.13H227.111ZM232.779 207.13L230.335 202.552H232.326L234.825 207.13H232.779ZM240.561 207.266C239.68 207.266 238.888 207.06 238.183 206.65C237.484 206.239 236.93 205.647 236.524 204.875C236.122 204.103 235.921 203.175 235.921 202.092C235.921 201.003 236.122 200.073 236.524 199.301C236.93 198.525 237.484 197.931 238.183 197.52C238.888 197.109 239.68 196.904 240.561 196.904C241.445 196.904 242.236 197.109 242.931 197.52C243.626 197.931 244.177 198.525 244.583 199.301C244.99 200.073 245.193 201.003 245.193 202.092C245.193 203.175 244.99 204.103 244.583 204.875C244.177 205.647 243.626 206.239 242.931 206.65C242.236 207.06 241.445 207.266 240.561 207.266ZM240.561 205.627C241.107 205.627 241.59 205.491 242.01 205.221C242.43 204.95 242.759 204.552 242.999 204.029C243.238 203.5 243.358 202.855 243.358 202.092C243.358 201.324 243.238 200.676 242.999 200.148C242.759 199.62 242.43 199.22 242.01 198.949C241.59 198.678 241.107 198.543 240.561 198.543C240.014 198.543 239.529 198.678 239.104 198.949C238.685 199.22 238.355 199.62 238.116 200.148C237.876 200.676 237.757 201.324 237.757 202.092C237.757 202.855 237.876 203.5 238.116 204.029C238.355 204.552 238.685 204.95 239.104 205.221C239.529 205.491 240.014 205.627 240.561 205.627ZM252.262 197.039V207.13H250.434V197.039H252.262ZM262.583 197.039V207.13H260.944L256.197 200.256H256.109V207.13H254.28V197.039H255.919L260.667 203.913H260.755V197.039H262.583ZM269.382 207.13H267.425L270.987 197.039H273.235L276.791 207.13H274.84L272.145 199.112H272.064L269.382 207.13ZM269.449 203.175H274.766V204.638H269.449V203.175ZM278.348 197.039L280.969 204.977H281.077L283.698 197.039H285.703L282.147 207.13H279.899L276.337 197.039H278.348ZM287.071 207.13V197.039H293.64V198.57H288.899V201.279H293.288V202.789H288.899V205.6H293.667V207.13H287.071ZM295.536 207.13V197.039H299.322C300.098 197.039 300.748 197.175 301.272 197.446C301.8 197.717 302.2 198.096 302.471 198.583C302.742 199.067 302.877 199.629 302.877 200.27C302.877 200.915 302.739 201.475 302.464 201.949C302.193 202.423 301.791 202.789 301.258 203.047C300.726 203.304 300.071 203.433 299.294 203.433H296.606V201.922H299.044C299.5 201.922 299.872 201.859 300.161 201.733C300.455 201.606 300.669 201.421 300.805 201.177C300.945 200.929 301.015 200.626 301.015 200.27C301.015 199.913 300.945 199.608 300.805 199.355C300.665 199.098 300.45 198.904 300.161 198.773C299.872 198.638 299.498 198.57 299.037 198.57H297.364V207.13H295.536ZM301.204 207.13L298.759 202.552H300.751L303.25 207.13H301.204ZM305.897 207.13H303.94L307.502 197.039H309.751L313.306 207.13H311.356L308.66 199.112H308.579L305.897 207.13ZM305.965 203.175H311.281V204.638H305.965V203.175ZM318.595 207.266C317.67 207.266 316.855 207.056 316.15 206.636C315.45 206.216 314.904 205.62 314.511 204.848C314.119 204.076 313.922 203.159 313.922 202.098C313.922 201.015 314.123 200.085 314.525 199.308C314.931 198.531 315.482 197.938 316.177 197.527C316.873 197.112 317.661 196.904 318.541 196.904C319.101 196.904 319.62 196.985 320.099 197.148C320.582 197.31 321.011 197.543 321.385 197.845C321.76 198.143 322.067 198.498 322.307 198.908C322.55 199.319 322.713 199.771 322.794 200.263H320.932C320.85 199.997 320.738 199.757 320.593 199.545C320.453 199.333 320.282 199.152 320.078 199.003C319.88 198.85 319.654 198.735 319.401 198.658C319.148 198.581 318.868 198.543 318.561 198.543C318.024 198.543 317.543 198.68 317.119 198.956C316.694 199.227 316.36 199.626 316.116 200.155C315.877 200.678 315.757 201.32 315.757 202.078C315.757 202.841 315.877 203.487 316.116 204.015C316.356 204.543 316.69 204.945 317.119 205.221C317.548 205.491 318.044 205.627 318.609 205.627C319.119 205.627 319.561 205.53 319.936 205.336C320.311 205.137 320.6 204.857 320.803 204.496C321.006 204.135 321.108 203.708 321.108 203.216L321.528 203.284H318.785V201.855H322.882V203.06C322.882 203.927 322.699 204.674 322.334 205.302C321.968 205.929 321.46 206.415 320.81 206.758C320.164 207.097 319.426 207.266 318.595 207.266ZM324.683 207.13V197.039H331.252V198.57H326.512V201.279H330.9V202.789H326.512V205.6H331.28V207.13H324.683Z" fill="#0A0D14"/>
<path d="M163.954 226.247V219.52H164.97V225.376H168.018V226.247H163.954ZM169.693 226.247H168.614L171.034 219.52H172.208L174.623 226.247H173.549L171.643 220.743H171.589L169.693 226.247ZM169.873 223.615H173.363V224.464H169.873V223.615ZM177.395 226.356C176.893 226.356 176.456 226.277 176.086 226.121C175.719 225.961 175.431 225.734 175.224 225.439C175.016 225.144 174.9 224.793 174.876 224.387H175.896C175.917 224.631 175.996 224.834 176.131 224.997C176.27 225.156 176.449 225.275 176.668 225.353C176.888 225.432 177.129 225.471 177.391 225.471C177.677 225.471 177.933 225.426 178.158 225.335C178.384 225.245 178.56 225.119 178.687 224.956C178.816 224.79 178.881 224.598 178.881 224.378C178.881 224.179 178.824 224.017 178.709 223.89C178.598 223.764 178.446 223.66 178.253 223.579C178.061 223.495 177.844 223.421 177.603 223.358L176.813 223.141C176.271 222.996 175.844 222.781 175.531 222.495C175.218 222.206 175.061 221.829 175.061 221.362C175.061 220.974 175.165 220.635 175.373 220.346C175.583 220.057 175.868 219.833 176.226 219.673C176.587 219.511 176.992 219.43 177.44 219.43C177.898 219.43 178.3 219.511 178.646 219.673C178.995 219.833 179.271 220.053 179.472 220.333C179.677 220.61 179.784 220.927 179.793 221.285H178.809C178.772 220.975 178.628 220.734 178.375 220.563C178.125 220.391 177.806 220.306 177.418 220.306C177.147 220.306 176.909 220.349 176.705 220.436C176.503 220.521 176.346 220.638 176.235 220.789C176.127 220.939 176.072 221.112 176.072 221.308C176.072 221.519 176.137 221.69 176.267 221.823C176.399 221.955 176.559 222.06 176.745 222.139C176.935 222.214 177.117 222.276 177.291 222.324L177.946 222.5C178.16 222.554 178.38 222.626 178.605 222.717C178.831 222.807 179.04 222.926 179.233 223.073C179.429 223.218 179.585 223.398 179.703 223.615C179.823 223.829 179.883 224.088 179.883 224.392C179.883 224.768 179.785 225.105 179.59 225.403C179.394 225.698 179.111 225.931 178.741 226.103C178.371 226.271 177.922 226.356 177.395 226.356ZM180.371 220.391V219.52H185.581V220.391H183.486V226.247H182.475V220.391H180.371ZM191.198 226.338C190.62 226.338 190.102 226.199 189.645 225.922C189.187 225.645 188.827 225.249 188.566 224.735C188.304 224.217 188.173 223.602 188.173 222.888C188.173 222.169 188.304 221.552 188.566 221.037C188.83 220.519 189.19 220.122 189.645 219.845C190.102 219.568 190.62 219.43 191.198 219.43C191.553 219.43 191.886 219.481 192.196 219.583C192.509 219.685 192.789 219.834 193.035 220.03C193.282 220.226 193.485 220.465 193.645 220.748C193.807 221.031 193.916 221.352 193.97 221.71H192.95C192.91 221.49 192.837 221.297 192.728 221.132C192.623 220.963 192.492 220.822 192.336 220.707C192.182 220.59 192.009 220.503 191.816 220.445C191.627 220.385 191.425 220.355 191.211 220.355C190.826 220.355 190.478 220.453 190.168 220.649C189.861 220.841 189.619 221.127 189.441 221.507C189.267 221.883 189.18 222.343 189.18 222.888C189.18 223.436 189.268 223.898 189.446 224.274C189.624 224.647 189.866 224.93 190.173 225.123C190.48 225.316 190.825 225.412 191.207 225.412C191.421 225.412 191.622 225.383 191.812 225.326C192.001 225.269 192.175 225.183 192.331 225.069C192.488 224.955 192.619 224.816 192.724 224.654C192.832 224.488 192.907 224.297 192.95 224.08H193.97C193.919 224.414 193.815 224.72 193.658 224.997C193.502 225.271 193.302 225.508 193.058 225.71C192.814 225.909 192.536 226.064 192.223 226.175C191.91 226.283 191.568 226.338 191.198 226.338ZM194.801 226.247V219.52H195.817V222.446H199.167V219.52H200.183V226.247H199.167V223.317H195.817V226.247H194.801ZM201.266 226.247V219.52H205.488V220.391H202.282V222.419H205.262V223.285H202.282V225.376H205.519V226.247H201.266ZM209.258 226.338C208.68 226.338 208.162 226.199 207.705 225.922C207.247 225.645 206.888 225.249 206.626 224.735C206.364 224.217 206.233 223.602 206.233 222.888C206.233 222.169 206.364 221.552 206.626 221.037C206.891 220.519 207.25 220.122 207.705 219.845C208.162 219.568 208.68 219.43 209.258 219.43C209.613 219.43 209.946 219.481 210.256 219.583C210.569 219.685 210.849 219.834 211.096 220.03C211.342 220.226 211.546 220.465 211.705 220.748C211.868 221.031 211.976 221.352 212.03 221.71H211.01C210.971 221.49 210.897 221.297 210.788 221.132C210.683 220.963 210.552 220.822 210.396 220.707C210.242 220.59 210.069 220.503 209.876 220.445C209.687 220.385 209.485 220.355 209.271 220.355C208.886 220.355 208.538 220.453 208.228 220.649C207.921 220.841 207.679 221.127 207.502 221.507C207.327 221.883 207.24 222.343 207.24 222.888C207.24 223.436 207.328 223.898 207.506 224.274C207.684 224.647 207.926 224.93 208.233 225.123C208.54 225.316 208.885 225.412 209.267 225.412C209.481 225.412 209.682 225.383 209.872 225.326C210.062 225.269 210.235 225.183 210.391 225.069C210.548 224.955 210.679 224.816 210.784 224.654C210.892 224.488 210.968 224.297 211.01 224.08H212.03C211.979 224.414 211.875 224.72 211.719 224.997C211.562 225.271 211.362 225.508 211.118 225.71C210.874 225.909 210.596 226.064 210.283 226.175C209.97 226.283 209.628 226.338 209.258 226.338ZM212.861 226.247V219.52H213.877V222.735H213.958L216.784 219.52H218.053L215.344 222.545L218.067 226.247H216.843L214.667 223.245L213.877 224.161V226.247H212.861ZM223.498 226.338C222.92 226.338 222.403 226.199 221.945 225.922C221.488 225.645 221.126 225.249 220.862 224.735C220.597 224.217 220.464 223.602 220.464 222.888C220.464 222.169 220.597 221.552 220.862 221.037C221.126 220.519 221.488 220.122 221.945 219.845C222.403 219.568 222.92 219.43 223.498 219.43C224.082 219.43 224.601 219.568 225.056 219.845C225.51 220.122 225.869 220.519 226.131 221.037C226.395 221.552 226.528 222.169 226.528 222.888C226.528 223.605 226.395 224.22 226.131 224.735C225.869 225.249 225.51 225.645 225.056 225.922C224.601 226.199 224.082 226.338 223.498 226.338ZM223.498 225.412C223.887 225.412 224.233 225.316 224.537 225.123C224.841 224.93 225.08 224.646 225.255 224.27C225.432 223.893 225.521 223.433 225.521 222.888C225.521 222.34 225.432 221.878 225.255 221.502C225.08 221.123 224.841 220.837 224.537 220.644C224.233 220.452 223.887 220.355 223.498 220.355C223.113 220.355 222.767 220.452 222.46 220.644C222.156 220.837 221.915 221.123 221.737 221.502C221.56 221.878 221.471 222.34 221.471 222.888C221.471 223.433 221.56 223.893 221.737 224.27C221.915 224.646 222.156 224.93 222.46 225.123C222.767 225.316 223.113 225.412 223.498 225.412ZM232.84 219.52V226.247H231.892L228.483 221.317H228.415V226.247H227.399V219.52H228.338L231.761 224.459H231.824V219.52H232.84ZM238.24 226.338C237.785 226.338 237.382 226.261 237.03 226.107C236.678 225.951 236.399 225.734 236.195 225.457C235.99 225.18 235.882 224.86 235.869 224.495H236.89C236.905 224.694 236.973 224.866 237.093 225.01C237.213 225.155 237.371 225.268 237.567 225.349C237.766 225.427 237.987 225.466 238.231 225.466C238.496 225.466 238.731 225.42 238.935 225.326C239.14 225.233 239.299 225.105 239.414 224.942C239.531 224.777 239.59 224.586 239.59 224.369C239.59 224.143 239.533 223.945 239.418 223.773C239.304 223.598 239.137 223.463 238.917 223.367C238.697 223.27 238.433 223.222 238.122 223.222H237.549V222.391H238.122C238.369 222.391 238.588 222.346 238.777 222.256C238.967 222.166 239.114 222.041 239.22 221.881C239.328 221.722 239.382 221.534 239.382 221.317C239.382 221.109 239.336 220.929 239.242 220.775C239.149 220.619 239.018 220.498 238.849 220.414C238.681 220.327 238.482 220.283 238.253 220.283C238.034 220.283 237.829 220.322 237.639 220.4C237.45 220.479 237.295 220.591 237.174 220.739C237.057 220.883 236.995 221.06 236.989 221.267H236.009C236.018 220.903 236.124 220.584 236.326 220.31C236.53 220.033 236.801 219.818 237.138 219.664C237.478 219.508 237.855 219.43 238.267 219.43C238.697 219.43 239.069 219.514 239.382 219.682C239.698 219.848 239.942 220.071 240.114 220.351C240.285 220.628 240.371 220.93 240.371 221.258C240.371 221.64 240.266 221.963 240.055 222.224C239.844 222.483 239.563 222.659 239.211 222.753V222.802C239.656 222.872 240.001 223.049 240.245 223.335C240.491 223.621 240.615 223.976 240.615 224.401C240.615 224.771 240.511 225.102 240.303 225.394C240.099 225.686 239.817 225.916 239.459 226.085C239.104 226.253 238.697 226.338 238.24 226.338ZM243.897 219.52V226.247H242.895V220.54H242.85L241.251 221.592V220.617L242.922 219.52H243.897ZM247.04 219.52H248.277L250.417 224.748H250.494L252.638 219.52H253.893V226.247H252.9V221.38H252.837L250.846 226.238H250.042L248.074 221.376H248.01V226.247H247.04V219.52ZM255.551 226.247H254.471L256.891 219.52H258.065L260.481 226.247H259.406L257.501 220.743H257.447L255.551 226.247ZM255.731 223.615H259.221V224.464H255.731V223.615ZM261.054 226.247V219.52H263.456C263.977 219.52 264.409 219.61 264.752 219.791C265.095 219.968 265.353 220.217 265.524 220.536C265.696 220.852 265.782 221.218 265.782 221.633C265.782 222.042 265.696 222.404 265.524 222.717C265.353 223.03 265.094 223.272 264.748 223.443C264.404 223.615 263.971 223.701 263.447 223.701H261.637V222.834H263.352C263.687 222.834 263.956 222.786 264.161 222.689C264.368 222.593 264.519 222.456 264.612 222.279C264.708 222.101 264.757 221.886 264.757 221.633C264.757 221.377 264.708 221.157 264.612 220.974C264.516 220.787 264.364 220.644 264.156 220.545C263.951 220.442 263.682 220.391 263.348 220.391H262.07V226.247H261.054ZM264.883 226.247L263.253 223.209H264.377L266.039 226.247H264.883Z" fill="#525866"/>
<g filter="url(#filter0_d_288_480)">
<circle cx="372.582" cy="89.4735" r="17.3605" fill="white"/>
</g>
<circle cx="372.583" cy="89.4731" r="8.16965" fill="#FF9494"/>
<defs>
<filter id="filter0_d_288_480" x="336.526" y="62.7651" width="72.1128" height="72.1128" filterUnits="userSpaceOnUse" color-interpolation-filters="sRGB">
<feFlood flood-opacity="0" result="BackgroundImageFix"/>
<feColorMatrix in="SourceAlpha" type="matrix" values="0 0 0 0 0 0 0 0 0 0 0 0 0 0 0 0 0 0 127 0" result="hardAlpha"/>
<feOffset dy="9.34796"/>
<feGaussianBlur stdDeviation="9.34796"/>
<feComposite in2="hardAlpha" operator="out"/>
<feColorMatrix type="matrix" values="0 0 0 0 0.820833 0 0 0 0 0.673767 0 0 0 0 0.673767 0 0 0 1 0"/>
<feBlend mode="normal" in2="BackgroundImageFix" result="effect1_dropShadow_288_480"/>
<feBlend mode="normal" in="SourceGraphic" in2="effect1_dropShadow_288_480" result="shape"/>
</filter>
</defs>
</svg>
