<svg width="154" height="45" viewBox="0 0 154 45" fill="none" xmlns="http://www.w3.org/2000/svg">
<path d="M15.5305 27.4692C21.223 27.4692 25.8375 22.9548 25.8375 17.3866C25.8375 11.8173 21.223 7.30286 15.5305 7.30286H1.09961V27.4692H15.5305Z" fill="#13274D"/>
<path d="M1.09961 7.30286L25.8375 37.5529H9.34521L1.09961 27.4692V7.30286Z" fill="#13274D"/>
<path d="M17.4489 27.2954C16.8157 27.4115 16.1732 27.4697 15.5294 27.4692H1.09961V7.30286L17.4489 27.2954Z" fill="#13274D"/>
<path d="M42.8024 29.4949C41.3592 29.4949 40.1195 29.2122 39.0833 28.6479C38.0763 28.0872 37.2553 27.244 36.7216 26.2224C36.1716 25.1697 35.8955 23.9322 35.8955 22.5077C35.8955 21.0821 36.1705 19.8501 36.7216 18.8117C37.2523 17.7926 38.0745 16.9547 39.0833 16.4049C40.1195 15.8274 41.3592 15.5392 42.8013 15.5392C43.7341 15.5392 44.613 15.68 45.4391 15.9627C46.2784 16.2443 46.9681 16.6491 47.5049 17.1749L46.6788 19.1384C46.0881 18.6511 45.4853 18.298 44.8682 18.0791C44.232 17.8446 43.5586 17.7272 42.8805 17.7326C41.4769 17.7326 40.4077 18.1506 39.674 18.9844C38.9392 19.8061 38.5718 20.9798 38.5718 22.5077C38.5718 24.0345 38.9392 25.2148 39.674 26.0497C40.4077 26.8835 41.478 27.3004 42.8805 27.3004C43.5889 27.3004 44.2522 27.1904 44.8682 26.9737C45.4842 26.7427 46.0892 26.383 46.6788 25.8957L47.5049 27.8592C46.967 28.3718 46.2784 28.7766 45.4391 29.0714C44.5897 29.3575 43.6987 29.5006 42.8024 29.4949ZM53.1633 29.4949C52.1667 29.4949 51.301 29.2969 50.5662 28.8976C49.8429 28.5113 49.2477 27.9226 48.8535 27.2036C48.4465 26.46 48.2441 25.5866 48.2441 24.5856C48.2441 23.5846 48.4476 22.7189 48.8535 21.9874C49.2477 21.2683 49.8429 20.6797 50.5662 20.2934C51.301 19.8952 52.1667 19.6961 53.1633 19.6961C54.1599 19.6961 55.0267 19.8952 55.7604 20.2934C56.4837 20.6797 57.0789 21.2683 57.4731 21.9874C57.8801 22.7189 58.0825 23.5846 58.0825 24.5856C58.0825 25.5866 57.8801 26.46 57.4731 27.2036C57.0789 27.9226 56.4837 28.5113 55.7604 28.8976C55.0267 29.2958 54.1588 29.4949 53.1633 29.4949ZM53.1633 27.6656C53.8981 27.6656 54.4888 27.4093 54.9343 26.8956C55.3809 26.3698 55.6031 25.5998 55.6031 24.5856C55.6031 23.5593 55.3809 22.7959 54.9343 22.2954C54.4888 21.7817 53.8981 21.5254 53.1633 21.5254C52.4285 21.5254 51.8389 21.7817 51.3923 22.2954C50.9468 22.7959 50.7235 23.5604 50.7235 24.5856C50.7235 25.5998 50.9468 26.3698 51.3923 26.8956C51.8389 27.4093 52.4285 27.6656 53.1633 27.6656ZM60.1527 29.3024V19.8886H62.5529V21.3329C62.8317 20.8293 63.2479 20.4154 63.753 20.1394C64.2645 19.8446 64.8552 19.6961 65.524 19.6961C66.9672 19.6961 67.911 20.3121 68.3576 21.5441C68.6493 20.9777 69.1011 20.5095 69.6567 20.1977C70.221 19.8633 70.8634 19.6961 71.585 19.6961C73.7498 19.6961 74.8322 20.9864 74.8322 23.5659V29.3024H72.3726V23.6616C72.3726 22.9433 72.2472 22.4175 71.9986 22.0842C71.7621 21.7498 71.3551 21.5837 70.7776 21.5837C70.1352 21.5837 69.6303 21.8081 69.2629 22.2569C68.8955 22.6936 68.7129 23.3019 68.7129 24.0862V29.3024H66.2522V23.6616C66.2522 22.9433 66.1279 22.4175 65.8782 22.0842C65.6428 21.7498 65.2424 21.5837 64.6792 21.5837C64.0357 21.5837 63.5308 21.8081 63.1634 22.2569C62.796 22.6936 62.6123 23.3019 62.6123 24.0862V29.3024H60.1527ZM77.4095 29.3024V19.8886H79.8097V21.3329C80.0885 20.8293 80.5047 20.4154 81.0098 20.1394C81.5213 19.8446 82.112 19.6961 82.7808 19.6961C84.224 19.6961 85.1678 20.3121 85.6144 21.5441C85.9058 20.9778 86.3572 20.5096 86.9124 20.1977C87.4778 19.8633 88.1202 19.6961 88.8418 19.6961C91.0066 19.6961 92.089 20.9864 92.089 23.5659V29.3024H89.6294V23.6616C89.6294 22.9433 89.504 22.4175 89.2554 22.0842C89.0189 21.7498 88.6119 21.5837 88.0344 21.5837C87.392 21.5837 86.8871 21.8081 86.5197 22.2569C86.1523 22.6936 85.9697 23.3019 85.9697 24.0862V29.3024H83.509V23.6616C83.509 22.9433 83.3847 22.4175 83.135 22.0842C82.8996 21.7498 82.4992 21.5837 81.9349 21.5837C81.2925 21.5837 80.7876 21.8081 80.4202 22.2569C80.0528 22.6936 79.8691 23.3019 79.8691 24.0862V29.3024H77.4095ZM97.7947 29.4949C97.0984 29.4949 96.4758 29.3662 95.9247 29.1099C95.4144 28.8639 94.9744 28.4931 94.6454 28.0319C94.3437 27.5825 94.186 27.0518 94.1933 26.5106C94.1933 25.8176 94.377 25.2731 94.7433 24.8749C95.1118 24.4646 95.708 24.1687 96.5352 23.9894C97.3613 23.8101 98.4701 23.7199 99.8605 23.7199H100.549V23.3162C100.549 22.6738 100.405 22.2118 100.116 21.9302C99.8275 21.6475 99.3424 21.5067 98.6604 21.5067C98.1214 21.5067 97.5714 21.5892 97.0071 21.7564C96.4075 21.9256 95.8322 22.1714 95.2955 22.4879L94.5871 20.8511C94.9281 20.6201 95.3274 20.4221 95.7861 20.2549C96.2591 20.0756 96.7519 19.9403 97.2634 19.8512C97.749 19.7526 98.243 19.701 98.7385 19.6972C100.142 19.6972 101.185 20.0173 101.868 20.6586C102.55 21.2878 102.891 22.2701 102.891 23.6044V29.3024H100.589V27.8009C100.373 28.3181 100.002 28.7552 99.5261 29.0516C99.041 29.3475 98.4635 29.4949 97.7947 29.4949ZM98.3062 27.8394C98.9486 27.8394 99.4799 27.6216 99.9001 27.1849C100.332 26.7482 100.549 26.1971 100.549 25.5294V25.1059H99.8803C98.6472 25.1059 97.7881 25.2027 97.3019 25.3952C96.83 25.5745 96.5935 25.9078 96.5935 26.3962C96.5935 26.8186 96.7453 27.1662 97.0467 27.4346C97.3481 27.7041 97.7683 27.8394 98.3062 27.8394ZM105.388 29.3024V19.8886H107.788V21.3516C108.116 20.8126 108.556 20.4023 109.107 20.1196C109.695 19.8319 110.342 19.6868 110.996 19.6961C113.265 19.6961 114.399 20.9864 114.399 23.5659V29.3024H111.94V23.6814C111.94 22.9499 111.796 22.4164 111.507 22.0831C111.231 21.7498 110.799 21.5837 110.208 21.5837C109.487 21.5837 108.91 21.8081 108.477 22.2569C108.057 22.6936 107.848 23.2777 107.848 24.0092V29.3024H105.388ZM120.598 29.4949C119.758 29.4949 119.017 29.2969 118.374 28.8976C117.744 28.5005 117.253 27.9351 116.898 27.2036C116.544 26.46 116.367 25.5866 116.367 24.5856C116.367 23.5725 116.544 22.7057 116.898 21.9874C117.253 21.2559 117.744 20.6916 118.374 20.2934C119.017 19.8952 119.758 19.6961 120.598 19.6961C121.28 19.6961 121.896 19.8446 122.447 20.1394C122.998 20.4342 123.412 20.8258 123.687 21.3131V15.7317H126.146V29.3024H123.746V27.7426C123.483 28.2816 123.071 28.7117 122.506 29.0329C121.942 29.3409 121.306 29.4949 120.598 29.4949ZM121.286 27.6656C122.021 27.6656 122.611 27.4093 123.057 26.8956C123.503 26.3698 123.726 25.5998 123.726 24.5856C123.726 23.5593 123.503 22.7959 123.057 22.2954C122.611 21.7817 122.021 21.5254 121.286 21.5254C120.552 21.5254 119.961 21.7817 119.515 22.2954C119.069 22.7959 118.847 23.5604 118.847 24.5856C118.847 25.5998 119.069 26.3698 119.515 26.8956C119.961 27.4093 120.552 27.6656 121.286 27.6656ZM132.416 28.5324V24.6241H128.52V22.9301H132.416V19.1384H134.227V22.9301H138.123V24.6241H134.227V28.5324H132.416ZM140.732 29.3024V15.7317H146.754C148.275 15.7317 149.45 16.0903 150.276 16.8097C151.102 17.5148 151.515 18.5092 151.515 19.7929C151.515 20.8071 151.247 21.6475 150.709 22.3152C150.171 22.9697 149.397 23.4119 148.387 23.6429C149.056 23.8486 149.607 24.3425 150.039 25.1257L152.361 29.3024H149.587L147.187 24.9717C146.95 24.5471 146.669 24.2589 146.34 24.1049C146.025 23.9509 145.618 23.8739 145.12 23.8739H143.251V29.3024H140.732ZM143.251 22.0457H146.32C148.157 22.0457 149.076 21.3142 149.076 19.8512C149.076 18.4003 148.157 17.6754 146.32 17.6754H143.251V22.0457Z" fill="#13274D"/>
</svg>
