<svg width="156" height="45" viewBox="0 0 156 45" fill="none" xmlns="http://www.w3.org/2000/svg">
<g filter="url(#filter0_d_84_353)">
<path d="M30.0425 22.4272C27.342 25.5215 23.4172 27.4685 19.0491 27.4685C14.681 27.4685 10.7573 25.5215 8.05566 22.4272C10.7562 19.3329 14.681 17.3859 19.0491 17.3859C23.4172 17.3859 27.342 19.3329 30.0425 22.4272Z" fill="white"/>
<path fill-rule="evenodd" clip-rule="evenodd" d="M4.2998 32.5109C4.2998 24.1575 10.9031 17.3859 19.0486 17.3859C14.6816 17.3859 10.7557 19.3329 8.05521 22.4272C10.7557 25.5215 14.6805 27.4685 19.0486 27.4685C23.4167 27.4685 27.3415 25.5215 30.042 22.4272C32.4744 25.2222 33.809 28.8056 33.7974 32.5109V38.2243C33.7974 38.9668 33.2111 39.5685 32.4862 39.5685H5.611C4.8872 39.5685 4.2998 38.9668 4.2998 38.2243V32.5109Z" fill="#13274D"/>
<path fill-rule="evenodd" clip-rule="evenodd" d="M13.5167 26.37C11.4172 25.4934 9.54823 24.1443 8.05521 22.4276C10.7557 19.3333 14.6805 17.3863 19.0486 17.3863C23.4167 17.3863 27.3415 19.3333 30.042 22.4276C32.4742 19.6328 33.8087 16.0498 33.7974 12.345V6.63046C33.7974 5.88796 33.2111 5.28625 32.4862 5.28625H5.611C4.8872 5.28625 4.2998 5.88796 4.2998 6.63046V12.345C4.2998 18.692 8.11241 24.126 13.5167 26.37Z" fill="#13274D"/>
<path d="M56.8354 14.9916V30.2189H53.8566V23.7399H47.4953V30.2189H44.5176V14.9916H47.4953V21.2528H53.8566V14.9916H56.8354ZM64.9996 30.4158C63.8655 30.4158 62.8436 30.1606 61.9361 29.6524C61.03 29.1303 60.2864 28.3672 59.7878 27.448C59.2774 26.5031 59.0222 25.413 59.0222 24.1766C59.0222 22.9402 59.284 21.849 59.8087 20.903C60.3203 19.985 61.0796 19.2292 61.9999 18.7217C62.9217 18.1981 63.9502 17.9363 65.0854 17.9363C66.2195 17.9363 67.248 18.1981 68.1698 18.7217C69.0867 19.2262 69.8396 19.9833 70.339 20.903C70.878 21.849 71.1486 22.9402 71.1486 24.1766C71.1486 25.4119 70.8714 26.5031 70.3181 27.448C69.7995 28.3738 69.0335 29.137 68.106 29.6524C67.1842 30.1606 66.148 30.4158 64.9996 30.4158ZM64.9996 27.7538C65.5386 27.7538 66.0424 27.6229 66.5099 27.3611C67.003 27.0738 67.4023 26.6497 67.6594 26.1401C67.9432 25.6011 68.084 24.9466 68.084 24.1766C68.084 23.0271 67.787 22.1471 67.1908 21.5366C66.921 21.2352 66.5895 20.9954 66.2188 20.8335C65.8481 20.6716 65.4469 20.5914 65.0425 20.5983C64.1911 20.5983 63.475 20.9107 62.8942 21.5366C62.3266 22.1471 62.0428 23.0271 62.0428 24.1766C62.0428 25.325 62.3189 26.2116 62.8722 26.8386C63.4398 27.448 64.1482 27.7538 64.9996 27.7538ZM84.4586 18.1332V30.2189H81.4589V28.6921C81.0653 29.2243 80.5465 29.6512 79.9486 29.9351C79.3234 30.2296 78.6398 30.3789 77.9488 30.3718C77.027 30.3718 76.2108 30.176 75.5024 29.7833C74.7929 29.3763 74.233 28.7867 73.8216 28.0156C73.4256 27.2302 73.2265 26.2996 73.2265 25.2238V18.1332H76.2042V24.7871C76.2042 25.7463 76.4385 26.4888 76.9071 27.0124C77.3746 27.5217 78.0126 27.7758 78.8211 27.7758C79.6439 27.7758 80.2896 27.5217 80.7571 27.0124C81.2246 26.4888 81.4589 25.7474 81.4589 24.7871V18.1321H84.4586V18.1332ZM90.3766 20.0087C90.7385 19.3901 91.2503 18.8726 91.8649 18.5039C92.4897 18.1409 93.1981 17.9583 93.9923 17.9583V21.1648H93.2058C92.2697 21.1648 91.5602 21.3914 91.0784 21.8413C90.6098 22.2923 90.3766 23.0777 90.3766 24.1975V30.2189H87.3978V18.1332H90.3766V20.0076V20.0087ZM100.615 17.9363C101.495 17.9363 102.268 18.1178 102.934 18.4819C103.601 18.8306 104.125 19.2893 104.508 19.8569V18.1332H107.508V30.3069C107.508 31.4267 107.288 32.4233 106.848 33.2956C106.415 34.1769 105.725 34.9068 104.87 35.39C103.99 35.9136 102.928 36.1754 101.68 36.1754C100.006 36.1754 98.6299 35.775 97.5519 34.9753C96.4882 34.1756 95.8854 33.0844 95.7435 31.7028H98.7003C98.8565 32.2561 99.1898 32.6928 99.7013 33.0118C100.226 33.3462 100.856 33.5134 101.593 33.5134C102.459 33.5134 103.161 33.245 103.7 32.706C104.239 32.1824 104.508 31.3827 104.508 30.3069V28.4303C104.125 28.9979 103.594 29.4698 102.913 29.8493C102.247 30.2266 101.481 30.4158 100.615 30.4158C99.6509 30.4238 98.7049 30.1509 97.8929 29.6304C97.0701 29.1068 96.4178 28.372 95.9349 27.4271C95.4674 26.4668 95.2331 25.369 95.2331 24.1326C95.2331 22.9116 95.4674 21.827 95.9349 20.8821C96.4178 19.9361 97.0624 19.2101 97.8709 18.6997C98.6949 18.1903 99.6467 17.9256 100.615 17.9363ZM104.509 24.1766C104.509 23.4341 104.366 22.8016 104.084 22.278C103.827 21.7685 103.427 21.3444 102.934 21.057C102.467 20.7702 101.929 20.619 101.381 20.6203C100.842 20.6166 100.313 20.76 99.8498 21.035C99.3812 21.31 98.9984 21.7181 98.7003 22.256C98.4176 22.7796 98.2757 23.4055 98.2757 24.1326C98.2757 24.8597 98.4176 25.4999 98.7003 26.0521C98.9984 26.5911 99.3823 27.0047 99.8498 27.2951C100.332 27.5866 100.842 27.7318 101.381 27.7318C101.934 27.7318 102.452 27.5943 102.934 27.3171C103.421 27.0217 103.818 26.5997 104.083 26.0961C104.366 25.5571 104.509 24.918 104.509 24.1766ZM113.395 14.0753V30.2189H110.417V14.0753H113.395ZM115.572 24.1326C115.572 22.9116 115.806 21.827 116.274 20.8821C116.757 19.9361 117.401 19.2101 118.21 18.6997C119.034 18.1904 119.986 17.9257 120.954 17.9363C121.834 17.9363 122.6 18.1178 123.252 18.4819C123.919 18.8449 124.45 19.3036 124.847 19.8569V18.1332H127.847V30.2189H124.847V28.4523C124.464 29.0188 123.933 29.4918 123.252 29.8702C122.586 30.2332 121.812 30.4158 120.933 30.4158C119.969 30.424 119.022 30.1511 118.21 29.6304C117.401 29.1068 116.757 28.372 116.274 27.4271C115.806 26.4668 115.572 25.369 115.572 24.1326ZM124.847 24.1766C124.847 23.4341 124.706 22.8016 124.423 22.278C124.166 21.7684 123.766 21.3443 123.273 21.057C122.806 20.7702 122.268 20.619 121.72 20.6203C121.181 20.6166 120.652 20.76 120.189 21.035C119.721 21.31 119.337 21.7181 119.04 22.256C118.757 22.7796 118.615 23.4055 118.615 24.1326C118.615 24.8597 118.757 25.4999 119.04 26.0521C119.309 26.5592 119.704 26.9877 120.189 27.2951C120.671 27.5866 121.182 27.7318 121.72 27.7318C122.273 27.7318 122.791 27.5943 123.273 27.3171C123.76 27.022 124.157 26.5999 124.423 26.0961C124.706 25.5571 124.847 24.918 124.847 24.1766ZM135.266 30.4158C134.302 30.4158 133.437 30.2409 132.672 29.8922C131.905 29.5292 131.295 29.0408 130.841 28.4303C130.409 27.8386 130.157 27.1339 130.118 26.4019H133.118C133.174 26.8672 133.394 27.2522 133.777 27.5569C134.174 27.8627 134.664 28.0156 135.246 28.0156C135.812 28.0156 136.252 27.899 136.564 27.6669C136.89 27.4337 137.054 27.1356 137.054 26.7726C137.054 26.3799 136.855 26.0884 136.458 25.8992C136.075 25.6957 135.458 25.4779 134.608 25.2447C133.728 25.0269 133.005 24.8014 132.437 24.5693C131.878 24.3318 131.382 23.9654 130.991 23.5001C130.594 23.0194 130.395 22.3726 130.395 21.5575C130.395 20.8887 130.579 20.2782 130.948 19.726C131.331 19.1727 131.87 18.736 132.565 18.417C133.274 18.0969 134.104 17.9363 135.054 17.9363C136.458 17.9363 137.579 18.2993 138.415 19.0275C139.252 19.7403 139.713 20.7072 139.798 21.9293H136.947C136.904 21.4486 136.706 21.0713 136.351 20.7941C136.011 20.5037 135.55 20.3585 134.968 20.3585C134.429 20.3585 134.011 20.4597 133.713 20.6632C133.576 20.7578 133.466 20.8854 133.391 21.0343C133.317 21.1831 133.281 21.3483 133.288 21.5146C133.288 21.9216 133.487 22.234 133.884 22.4529C134.281 22.6564 134.898 22.8676 135.735 23.0854C136.585 23.3032 137.287 23.5287 137.84 23.7619C138.394 23.994 138.869 24.3581 139.266 24.852C139.677 25.3327 139.89 25.9718 139.904 26.7726C139.904 27.47 139.713 28.0959 139.33 28.6481C138.961 29.2014 138.422 29.6381 137.713 29.9571C137.018 30.2629 136.203 30.4158 135.266 30.4158ZM146.859 30.4158C145.895 30.4158 145.03 30.2409 144.263 29.8922C143.498 29.5292 142.888 29.0408 142.434 28.4303C142.001 27.8389 141.75 27.134 141.711 26.4019H144.711C144.767 26.8672 144.987 27.2522 145.37 27.5569C145.767 27.8627 146.257 28.0156 146.838 28.0156C147.405 28.0156 147.845 27.899 148.157 27.6669C148.483 27.4337 148.647 27.1356 148.647 26.7726C148.647 26.3799 148.448 26.0884 148.051 25.8992C147.668 25.6957 147.051 25.4779 146.199 25.2447C145.32 25.0269 144.597 24.8014 144.03 24.5693C143.47 24.3321 142.975 23.9657 142.584 23.5001C142.187 23.0194 141.988 22.3726 141.988 21.5575C141.988 20.8887 142.172 20.2782 142.541 19.726C142.924 19.1727 143.463 18.736 144.158 18.417C144.866 18.0969 145.697 17.9363 146.647 17.9363C148.051 17.9363 149.172 18.2993 150.008 19.0275C150.845 19.7403 151.306 20.7072 151.39 21.9293H148.54C148.497 21.4486 148.299 21.0713 147.944 20.7941C147.604 20.5037 147.143 20.3585 146.561 20.3585C146.022 20.3585 145.604 20.4597 145.306 20.6632C145.169 20.7578 145.058 20.8854 144.984 21.0343C144.91 21.1831 144.874 21.3483 144.88 21.5146C144.88 21.9216 145.08 22.234 145.477 22.4529C145.874 22.6564 146.491 22.8676 147.327 23.0854C148.178 23.3032 148.88 23.5287 149.433 23.7619C149.987 23.994 150.462 24.3581 150.859 24.852C151.27 25.3327 151.483 25.9718 151.497 26.7726C151.497 27.47 151.306 28.0959 150.923 28.6481C150.554 29.2014 150.015 29.6381 149.306 29.9571C148.611 30.2629 147.796 30.4158 146.859 30.4158Z" fill="#13274D"/>
</g>
<defs>
<filter id="filter0_d_84_353" x="-3" y="0.427856" width="162" height="52" filterUnits="userSpaceOnUse" color-interpolation-filters="sRGB">
<feFlood flood-opacity="0" result="BackgroundImageFix"/>
<feColorMatrix in="SourceAlpha" type="matrix" values="0 0 0 0 0 0 0 0 0 0 0 0 0 0 0 0 0 0 127 0" result="hardAlpha"/>
<feOffset dy="4"/>
<feGaussianBlur stdDeviation="2"/>
<feComposite in2="hardAlpha" operator="out"/>
<feColorMatrix type="matrix" values="0 0 0 0 0 0 0 0 0 0 0 0 0 0 0 0 0 0 0.25 0"/>
<feBlend mode="normal" in2="BackgroundImageFix" result="effect1_dropShadow_84_353"/>
<feBlend mode="normal" in="SourceGraphic" in2="effect1_dropShadow_84_353" result="shape"/>
</filter>
</defs>
</svg>
