<svg width="150" height="45" viewBox="0 0 150 45" fill="none" xmlns="http://www.w3.org/2000/svg">
<path fill-rule="evenodd" clip-rule="evenodd" d="M27.4408 6.41432C27.0685 6.33341 26.6839 6.33341 26.3116 6.41432C25.8808 6.50782 25.4951 6.73552 25.1898 6.91702L25.1062 6.96652L14.7326 13.0517L14.6448 13.1034C14.3201 13.2926 13.913 13.5291 13.6001 13.8877C13.3287 14.1998 13.1242 14.5671 13.0001 14.9657C12.8544 15.4277 12.8566 15.9194 12.8576 16.3099V28.5397C12.8566 28.9302 12.8544 29.4219 13.0001 29.8839C13.1255 30.2843 13.3301 30.6517 13.6001 30.9619C13.913 31.3205 14.3201 31.557 14.6448 31.7462L14.7326 31.7979L25.1062 37.8831L25.1898 37.9326C25.4951 38.1141 25.8808 38.3418 26.3116 38.4353C26.6844 38.5156 27.068 38.5156 27.4408 38.4353C27.8716 38.3418 28.2562 38.1141 28.5626 37.9326L28.6462 37.8831L39.0187 31.7979L39.0573 31.7759L39.1076 31.7462C39.4323 31.557 39.8394 31.3205 40.1523 30.9619C40.4235 30.6496 40.6279 30.2824 40.7523 29.8839C40.8969 29.4219 40.8958 28.9302 40.8937 28.5397V16.3099C40.8958 15.9194 40.8969 15.4277 40.7523 14.9646C40.6282 14.566 40.4237 14.1987 40.1523 13.8866C39.8394 13.5291 39.4323 13.2926 39.1076 13.1034L39.0198 13.0517L28.6473 6.96652L28.5637 6.91702C28.2573 6.73552 27.8716 6.50782 27.4408 6.41432ZM26.468 9.55482C26.6 9.47472 26.734 9.39806 26.8698 9.32492L26.8762 9.32162L26.8826 9.32492C27.0184 9.39806 27.1524 9.47472 27.2844 9.55482L36.6058 15.0229L26.8762 20.7319L17.1466 15.0229L26.468 9.55482ZM15.6616 17.5386L25.4748 23.296V34.7129L16.0944 29.2096C15.9526 29.1291 15.8129 29.0447 15.6755 28.9566L15.668 28.9511V28.9423C15.6617 28.7726 15.6596 28.6028 15.6616 28.433V17.5386Z" fill="#13274D"/>
<path d="M53.6523 27.3726H58.1148V30.149H50.2451V15.3804H53.6523V27.3715V27.3726ZM61.253 17.1899C60.6551 17.1899 60.1644 17.0073 59.7787 16.6432C59.598 16.4635 59.4552 16.2475 59.3594 16.0086C59.2635 15.7698 59.2166 15.5133 59.2215 15.255C59.2215 14.694 59.4069 14.2309 59.7787 13.8657C60.1644 13.4873 60.6551 13.2981 61.253 13.2981C61.8369 13.2981 62.3158 13.4873 62.6876 13.8657C63.0733 14.2309 63.2651 14.694 63.2651 15.255C63.2651 15.8017 63.0723 16.2648 62.6865 16.6432C62.3158 17.0073 61.8369 17.1899 61.253 17.1899ZM62.9458 18.4109V30.149H59.5398V18.4098H62.9469L62.9458 18.4109ZM69.4398 18.2415C70.2219 18.2415 70.9065 18.4098 71.4905 18.7475C72.0883 19.083 72.5469 19.5252 72.8651 20.0719V18.4109H76.2723V30.1281C76.2723 31.2083 76.0655 32.1829 75.654 33.0519C75.2597 33.931 74.6129 34.6652 73.8005 35.1562C72.9776 35.6743 71.949 35.9339 70.7148 35.9339C69.0669 35.9339 67.7319 35.5203 66.7098 34.6931C65.6876 33.8791 65.1026 32.7714 64.9569 31.3689H68.3233C68.4305 31.8177 68.6823 32.1686 69.0808 32.4205C69.4783 32.6878 69.9701 32.8209 70.554 32.8209C71.258 32.8209 71.8162 32.6031 72.2276 32.1686C72.653 31.7473 72.8651 31.0686 72.8651 30.1281V28.466C72.533 29.0127 72.0755 29.4615 71.4905 29.8124C70.9065 30.149 70.2219 30.3173 69.4387 30.3173C68.5226 30.3173 67.6923 30.072 66.9487 29.5803C66.2051 29.0765 65.6137 28.3681 65.1755 27.4562C64.7512 26.5311 64.538 25.4652 64.538 24.2585C64.538 23.0518 64.7512 21.9925 65.1755 21.0817C65.6148 20.1698 66.2051 19.4691 66.9487 18.9785C67.6905 18.4879 68.5574 18.2316 69.4398 18.2415ZM72.8651 24.2805C72.8651 23.3818 72.6262 22.6745 72.1473 22.1542C71.9335 21.9053 71.6698 21.7069 71.3742 21.5726C71.0787 21.4384 70.7583 21.3715 70.4351 21.3765C69.758 21.3765 69.1794 21.6361 68.7015 22.1542C68.2365 22.6602 68.0051 23.3609 68.0051 24.2585C68.0051 25.1561 68.2365 25.8711 68.7015 26.4035C69.1805 26.9238 69.758 27.1823 70.4351 27.1823C71.1123 27.1823 71.6833 26.9238 72.1483 26.4046C72.6262 25.8854 72.8662 25.177 72.8662 24.2794L72.8651 24.2805ZM85.3698 18.2844C86.6448 18.2844 87.668 18.7321 88.4383 19.6297C89.2076 20.5141 89.5933 21.734 89.5933 23.2905V30.149H86.2076V23.7745C86.2076 22.9891 86.0148 22.3797 85.629 21.9441C85.2433 21.5096 84.7258 21.2918 84.0755 21.2918C83.424 21.2918 82.9065 21.5096 82.5219 21.9441C82.1362 22.3797 81.9433 22.9891 81.9433 23.7745V30.149H78.5362V14.5818H81.9433V19.9883C82.3029 19.4564 82.79 19.0286 83.3576 18.7464C83.9555 18.4384 84.6262 18.2844 85.3698 18.2844ZM97.9569 27.0987V30.149H96.2233C94.988 30.149 94.0258 29.8333 93.3348 29.203C92.6448 28.5573 92.2987 27.5123 92.2987 26.068V21.3974H90.9444V18.4098H92.2987V15.5498H95.7058V18.4098H97.9365V21.3974H95.7058V26.1098C95.7058 26.4607 95.7851 26.7126 95.9448 26.8666C96.1033 27.0206 96.369 27.0976 96.7408 27.0976L97.9569 27.0987ZM103.061 20.0719C103.379 19.5252 103.838 19.083 104.436 18.7464C105.034 18.4098 105.717 18.2415 106.488 18.2415C107.404 18.2415 108.234 18.4868 108.978 18.9785C109.721 19.4691 110.306 20.1698 110.73 21.0817C111.169 21.9936 111.388 23.0518 111.388 24.2585C111.388 25.4641 111.169 26.5311 110.73 27.4562C110.306 28.3681 109.721 29.0765 108.978 29.5814C108.236 30.0716 107.37 30.3275 106.488 30.3173C105.704 30.3173 105.02 30.1556 104.436 29.8333C103.875 29.5193 103.402 29.063 103.061 28.5078V30.149H99.654V14.5818H103.061V20.0719ZM107.922 24.2585C107.922 23.3609 107.682 22.6591 107.204 22.1542C106.988 21.9037 106.72 21.7044 106.421 21.5701C106.122 21.4359 105.798 21.3698 105.472 21.3765C104.795 21.3765 104.216 21.6361 103.738 22.1542C103.273 22.6734 103.042 23.3818 103.042 24.2794C103.042 25.177 103.273 25.8854 103.738 26.4046C104.216 26.9238 104.795 27.1823 105.472 27.1823C106.149 27.1823 106.727 26.9238 107.204 26.4046C107.682 25.8711 107.922 25.1561 107.922 24.2585ZM118.035 30.3173C116.947 30.3173 115.964 30.072 115.088 29.5803C114.226 29.0906 113.515 28.3618 113.036 27.4771C112.544 26.5652 112.299 25.4993 112.299 24.2794C112.299 23.0738 112.551 22.0145 113.055 21.1026C113.533 20.205 114.253 19.4677 115.128 18.9785C116.004 18.4868 116.987 18.2415 118.076 18.2415C119.165 18.2415 120.147 18.4868 121.024 18.9785C121.899 19.4677 122.618 20.205 123.096 21.1026C123.6 22.0145 123.852 23.0738 123.852 24.2794C123.852 25.4861 123.594 26.552 123.075 27.4771C122.59 28.3703 121.864 29.1009 120.984 29.5814C120.108 30.072 119.125 30.3173 118.035 30.3173ZM118.035 27.2043C118.687 27.2043 119.238 26.9513 119.69 26.4464C120.154 25.9415 120.386 25.2188 120.386 24.2794C120.386 23.34 120.161 22.6184 119.709 22.1124C119.508 21.8704 119.258 21.677 118.975 21.5462C118.693 21.4153 118.386 21.3502 118.076 21.3556C117.412 21.3556 116.86 21.6086 116.422 22.1124C115.984 22.6041 115.765 23.3257 115.765 24.2794C115.765 25.2188 115.977 25.9415 116.403 26.4464C116.603 26.6886 116.854 26.8821 117.136 27.0131C117.419 27.1442 117.726 27.2094 118.035 27.2043ZM132.035 30.149L129.903 26.8886L128.11 30.149H124.424L128.091 24.154L124.325 18.4098H128.15L130.282 21.6493L132.074 18.4098H135.76L132.035 24.3212L135.86 30.149H132.035Z" fill="#13274D"/>
</svg>
