<svg width="157" height="45" viewBox="0 0 157 45" fill="none" xmlns="http://www.w3.org/2000/svg">
<path d="M45.7282 22.6223C45.7282 31.1726 38.6352 38.1147 29.8735 38.1147C21.1106 38.1147 14.0176 31.1737 14.0176 22.6223C14.0176 14.072 21.1106 7.13098 29.8735 7.13098C38.6352 7.13098 45.7282 14.072 45.7282 22.6223Z" stroke="#13274D" stroke-width="3"/>
<path d="M36.0091 28.6203C32.7604 31.7949 29.0967 33.8508 25.8658 34.6626C22.5935 35.4854 20.0949 34.9783 18.664 33.578C17.2319 32.1799 16.7127 29.7379 17.5538 26.538C18.3859 23.381 20.4886 19.7994 23.7373 16.6248C26.985 13.4491 30.6498 11.3943 33.8795 10.5825C37.153 9.75971 39.6515 10.2668 41.0825 11.666C42.5134 13.0652 43.0338 15.5072 42.1916 18.706C41.3606 21.863 39.2579 25.4446 36.0091 28.6203Z" stroke="#13274D" stroke-width="3"/>
<path d="M36.0093 16.6251C39.2581 19.7997 41.3607 23.3813 42.1917 26.5394C43.0328 29.7382 42.5136 32.1791 41.0815 33.5794C39.6506 34.9775 37.1531 35.4857 33.8797 34.6629C30.65 33.8511 26.9863 31.7952 23.7375 28.6195C20.4887 25.4449 18.386 21.8633 17.555 18.7063C16.714 15.5064 17.2321 13.0655 18.6641 11.6663C20.0951 10.2671 22.5936 9.76004 25.866 10.5817C29.0968 11.3946 32.7605 13.4494 36.0093 16.6251Z" stroke="#13274D" stroke-width="3"/>
<path d="M62.4378 30.4069C66.1923 30.4069 68.7267 28.4896 68.7267 25.4272C68.7267 18.9526 59.9269 21.7114 59.9269 18.2981C59.9269 17.34 60.8117 16.6855 62.2225 16.6855C63.825 16.6855 64.8287 17.527 64.9475 18.8129H68.3679C68.2726 15.7032 65.8335 13.6704 62.2225 13.6704C58.8268 13.6704 56.4348 15.5866 56.4348 18.2981C56.4348 24.7265 65.1157 22.2724 65.1157 25.4745C65.1157 26.7131 64.0392 27.3676 62.4378 27.3676C60.6682 27.3676 59.5445 26.316 59.3998 24.6561H55.957C56.0995 28.1387 58.635 30.4069 62.4378 30.4069ZM69.5398 34.9884H72.8648V29.1672C73.5096 29.9625 74.6815 30.4069 76.0452 30.4069C79.5126 30.4069 81.8564 27.9979 81.8564 24.3283C81.8564 20.6587 79.7033 18.2508 76.3323 18.2508C74.778 18.2508 73.5814 18.8118 72.8648 19.7248V18.4378H69.5398V34.9884ZM75.6381 27.6008C73.8438 27.6008 72.673 26.2918 72.673 24.3294C72.673 22.3417 73.8449 21.0327 75.6381 21.0327C77.3842 21.0327 78.5796 22.3417 78.5796 24.3294C78.5796 26.2929 77.3842 27.6008 75.6381 27.6008ZM82.6605 30.2188H85.9844V23.7673C85.9844 22.2493 87.0128 21.1493 88.4717 21.1493C89.8589 21.1493 90.8155 22.1778 90.8155 23.6045V30.2188H94.1394V22.8796C94.1394 20.1681 92.3698 18.2508 89.6672 18.2508C87.994 18.2508 86.6786 18.9295 85.9844 20.0746V13.3195H82.6605V30.2188ZM103.438 26.2225C103.176 27.2268 102.291 27.7416 100.951 27.7416C99.2778 27.7416 98.2013 26.7131 97.9624 25.0532H106.62C106.642 24.7969 106.667 24.446 106.667 24.0016C106.667 21.3132 104.969 18.2508 100.712 18.2508C96.6223 18.2508 94.7573 21.3132 94.7573 24.3052C94.7573 27.2741 96.8623 30.4058 100.951 30.4058C103.917 30.4058 106.213 28.7701 106.69 26.2225H103.438ZM100.713 20.6356C102.315 20.6356 103.248 21.6872 103.343 22.9962H98.0095C98.2966 21.3605 99.2072 20.6356 100.713 20.6356ZM115.385 21.1493V18.4378H113.67C112.211 18.4378 111.303 18.9295 110.657 20.4013V18.4378H107.309V30.2188H110.658V24.4922C110.658 22.4825 111.399 21.1493 113.049 21.1493H115.385Z" fill="#13274D"/>
<path d="M126.865 18.4379H123.516V24.8894C123.516 26.3854 122.488 27.5074 121.029 27.5074C119.666 27.5074 118.71 26.4789 118.71 25.0544V18.4379H115.385V25.7782C115.385 28.4666 117.154 30.4059 119.857 30.4059C121.508 30.4059 122.847 29.7052 123.516 28.5832V30.2189H126.865V18.4379ZM128.299 30.2189H131.623V13.3196H128.299V30.2189ZM141.114 26.2226C140.85 27.2269 139.965 27.7417 138.626 27.7417C136.952 27.7417 135.877 26.7132 135.638 25.0533H144.294C144.319 24.797 144.342 24.4461 144.342 24.0017C144.342 21.3133 142.644 18.2509 138.387 18.2509C134.298 18.2509 132.433 21.3133 132.433 24.3053C132.433 27.2742 134.538 30.4059 138.626 30.4059C141.592 30.4059 143.888 28.7702 144.366 26.2226H141.114ZM138.387 20.6357C139.99 20.6357 140.922 21.6873 141.018 22.9963H135.685C135.972 21.3606 136.88 20.6357 138.387 20.6357Z" fill="#13274D"/>
</svg>
