<svg width="154" height="45" viewBox="0 0 154 45" fill="none" xmlns="http://www.w3.org/2000/svg">
<g filter="url(#filter0_d_84_370)">
<path d="M25.4576 29.774C32.227 29.774 37.7149 24.2916 37.7149 17.5299C37.7149 16.7632 37.6445 16.013 37.5092 15.2859C36.7684 15.1489 36.0165 15.08 35.263 15.0802C28.4936 15.0802 23.0068 20.5626 23.0068 27.3243C23.0068 28.091 23.0772 28.8412 23.2114 29.5683C23.9396 29.7025 24.6909 29.774 25.4576 29.774Z" fill="white"/>
<path fill-rule="evenodd" clip-rule="evenodd" d="M23.2113 29.5687C17.5144 28.5149 13.2002 23.5253 13.2002 17.5304C13.2002 10.7676 18.6881 5.28625 25.4575 5.28625C31.4591 5.28625 36.4542 9.59605 37.5091 15.2864C36.7682 15.1497 36.0163 15.0813 35.2629 15.0818C28.4935 15.0818 23.0056 20.5631 23.0056 27.3247C23.0056 28.0914 23.076 28.8416 23.2113 29.5687Z" fill="#13274D"/>
<path fill-rule="evenodd" clip-rule="evenodd" d="M25.4571 29.7744C32.2265 29.7744 37.7144 24.292 37.7144 17.5303C37.7144 16.7636 37.644 16.0134 37.5087 15.2863C43.2056 16.3401 47.5198 21.3297 47.5198 27.3247C47.5198 34.0874 42.0319 39.5687 35.2625 39.5687C32.4028 39.5697 29.6327 38.5707 27.4318 36.7447C25.2309 34.9187 23.7378 32.3806 23.2109 29.5698C23.9391 29.704 24.6904 29.7744 25.4571 29.7744Z" fill="#13274D"/>
<path d="M65.8905 30.4069C70.0782 30.4069 73.0966 28.0452 73.4013 24.5395H69.8912C69.6107 26.2225 67.9959 27.3676 65.8894 27.3676C63.245 27.3676 61.21 25.5449 61.21 22.0381C61.21 18.5324 63.245 16.6855 65.8894 16.6855C67.9486 16.6855 69.5634 17.8306 69.7977 19.5367H73.4717C73.0273 16.0079 70.0078 13.6704 65.8894 13.6704C61.5136 13.6704 57.6768 16.5216 57.6768 22.0381C57.6768 27.5546 61.4443 30.4058 65.8894 30.4058L65.8905 30.4069ZM79.9155 18.2508C76.6859 18.2508 74.7675 20.145 74.6267 22.5056H77.5285C77.5747 21.5233 78.3007 20.6356 79.7285 20.6356C81.0617 20.6356 81.8339 21.3132 81.8339 22.2955C81.8339 22.7861 81.5292 23.1601 80.944 23.1601H78.9552C76.3812 23.1601 74.6498 24.5626 74.6498 26.877C74.6498 28.8867 76.2173 30.4058 78.5108 30.4058C80.1256 30.4058 81.4368 29.682 81.8328 28.5831V30.2199H85.0624V22.6464C85.0624 19.9811 82.8877 18.2508 79.9155 18.2508ZM79.3303 28.0452C78.4173 28.0452 77.7617 27.5084 77.7617 26.7362C77.7617 25.8243 78.4646 25.2171 79.4469 25.2171H81.8339V25.381C81.8339 26.877 80.9209 28.0452 79.3303 28.0452ZM87.2481 34.9884H90.5008V29.1672C91.1333 29.9625 92.2795 30.4069 93.6138 30.4069C97.0062 30.4069 99.2997 27.9979 99.2997 24.3283C99.2997 20.6587 97.1932 18.2508 93.8943 18.2508C92.373 18.2508 91.2026 18.8118 90.5008 19.7248V18.4378H87.2481V34.9884ZM93.2156 27.6008C91.46 27.6008 90.3138 26.2918 90.3138 24.3294C90.3138 22.3417 91.4611 21.0327 93.2156 21.0327C94.9239 21.0327 96.0943 22.3417 96.0943 24.3294C96.0943 26.2929 94.9239 27.6008 93.2156 27.6008ZM105.027 30.4069C107.788 30.4069 109.614 28.9329 109.614 26.6889C109.614 21.3605 103.155 24.0951 103.155 21.6872C103.155 20.9392 103.787 20.5421 104.7 20.5421C105.588 20.5421 106.501 21.08 106.642 22.0843H109.472C109.356 19.771 107.437 18.2508 104.606 18.2508C102.196 18.2508 100.393 19.7248 100.393 21.8038C100.393 26.7604 106.736 24.3998 106.736 26.8066C106.736 27.4611 106.033 27.9517 105.027 27.9517C103.811 27.9517 102.991 27.2972 102.875 26.2456H100.066C100.183 28.7932 102.149 30.4069 105.027 30.4069ZM122.46 18.4378H119.184V24.8893C119.184 26.3853 118.178 27.5073 116.75 27.5073C115.417 27.5073 114.481 26.4788 114.481 25.0543V18.4378H111.228V25.7781C111.228 28.4665 112.959 30.4058 115.604 30.4058C117.219 30.4058 118.529 29.7051 119.184 28.5831V30.2188H122.46V18.4378ZM124.8 30.2188H128.053V13.3195H124.8V30.2188ZM138.275 26.2225C138.017 27.2268 137.152 27.7416 135.842 27.7416C134.203 27.7416 133.15 26.7131 132.916 25.0532H141.387C141.41 24.7969 141.434 24.446 141.434 24.0016C141.434 21.3132 139.772 18.2508 135.607 18.2508C131.606 18.2508 129.781 21.3132 129.781 24.3052C129.781 27.2741 131.84 30.4058 135.842 30.4058C138.742 30.4058 140.99 28.7701 141.457 26.2225H138.275ZM135.607 20.6356C137.175 20.6356 138.088 21.6872 138.181 22.9962H132.963C133.243 21.3605 134.133 20.6356 135.607 20.6356Z" fill="#13274D"/>
</g>
<defs>
<filter id="filter0_d_84_370" x="-4" y="0.427856" width="162" height="52" filterUnits="userSpaceOnUse" color-interpolation-filters="sRGB">
<feFlood flood-opacity="0" result="BackgroundImageFix"/>
<feColorMatrix in="SourceAlpha" type="matrix" values="0 0 0 0 0 0 0 0 0 0 0 0 0 0 0 0 0 0 127 0" result="hardAlpha"/>
<feOffset dy="4"/>
<feGaussianBlur stdDeviation="2"/>
<feComposite in2="hardAlpha" operator="out"/>
<feColorMatrix type="matrix" values="0 0 0 0 0 0 0 0 0 0 0 0 0 0 0 0 0 0 0.25 0"/>
<feBlend mode="normal" in2="BackgroundImageFix" result="effect1_dropShadow_84_370"/>
<feBlend mode="normal" in="SourceGraphic" in2="effect1_dropShadow_84_370" result="shape"/>
</filter>
</defs>
</svg>
