<svg width="154" height="45" viewBox="0 0 154 45" fill="none" xmlns="http://www.w3.org/2000/svg">
<path d="M22.0539 19.0905C26.3227 17.1029 29.7357 13.6482 31.6712 9.35549C30.4227 8.06959 28.7991 7.15219 27.0501 6.60109L26.1129 6.29419C26.043 6.42737 26.0007 6.57328 25.9886 6.72319C24.4893 10.8867 21.4291 14.2538 17.3074 16.1524C14.4353 17.4988 12.3112 19.9474 11.3124 22.8866L11 23.8051C11.1254 23.8667 11.3124 23.9283 11.4367 23.9283C12.6247 24.3573 13.8105 24.9073 14.9347 25.5805C16.4967 22.8261 18.9937 20.4985 22.0539 19.0905Z" fill="#13274D"/>
<path d="M40.1645 19.3373C37.8545 22.7649 34.6689 25.5193 30.7342 27.3563C27.5497 28.827 25.1132 31.5814 23.9901 34.888L23.6777 35.9286C24.8962 36.9857 26.3212 37.778 27.8621 38.2551L28.7982 38.562C28.8684 38.4288 28.911 38.2829 28.9236 38.133C30.4229 33.9695 33.4831 30.6024 37.6048 28.7038C40.4769 27.3574 42.6626 24.9088 43.5998 21.9696L43.9122 21.0511C42.5999 20.6837 41.3514 20.071 40.1645 19.3362V19.3373Z" fill="#13274D"/>
<path d="M21.1795 32.7451C22.7545 29.0409 25.6469 26.0521 29.2975 24.3565C32.6712 22.7648 35.4806 20.3162 37.4166 17.3165C35.9811 15.969 34.7942 14.4378 33.9197 12.6008C31.6097 16.7643 27.9874 20.1325 23.5533 22.2148C21.0171 23.3761 18.9481 25.361 17.6826 27.8468C19.0565 29.1327 20.1796 30.7244 21.0552 32.4998L21.1795 32.7451Z" fill="#13274D"/>
<path d="M51.3546 29.7616H61.8794V26.9016H54.7426V14.3616H51.3546V29.7616ZM72.875 18.6736H69.7334V24.7456C69.7334 26.1536 68.7676 27.2096 67.3992 27.2096C66.1199 27.2096 65.2223 26.2416 65.2223 24.8996V18.6736H62.1038V25.5816C62.1038 28.1116 63.7648 29.9376 66.2992 29.9376C67.848 29.9376 69.1042 29.2776 69.7334 28.2216V29.7616H72.8739L72.875 18.6736ZM74.041 29.7616H77.1826V23.4696C77.1826 22.0396 78.0131 21.0936 79.3155 21.0936C80.5266 21.0936 81.29 22.0396 81.29 23.4696V29.7616H84.4316V23.4696C84.4316 22.0396 85.261 21.0936 86.5634 21.0936C87.7745 21.0936 88.5599 22.0396 88.5599 23.4696V29.7616H91.6795V22.5016C91.6795 20.2796 90.0867 18.4976 87.6183 18.4976C85.8 18.4976 84.3865 19.4436 83.8475 20.5216C83.3085 19.2016 82.1645 18.4976 80.3924 18.4976C78.8656 18.4976 77.7887 19.2236 77.1826 20.2356V18.6736H74.0421L74.041 29.7616ZM92.7498 13.8556V17.0896H96.0718V13.8556H92.7498ZM92.84 29.7616H95.9805V18.6736H92.84V29.7616ZM97.152 29.7616H100.294V23.6896C100.294 22.2596 101.258 21.2256 102.627 21.2256C103.929 21.2256 104.805 22.1936 104.805 23.5356V29.7616H107.945V22.8536C107.945 20.3016 106.284 18.4976 103.727 18.4976C102.178 18.4976 100.922 19.1356 100.294 20.2136V18.6736H97.152V29.7616ZM114.498 29.9376C117.976 29.9376 120.468 27.5176 120.468 24.2176C120.468 20.9176 117.976 18.4976 114.498 18.4976C111.02 18.4976 108.529 20.9176 108.529 24.2176C108.529 27.5176 111.02 29.9376 114.498 29.9376ZM114.498 27.2976C112.815 27.2976 111.671 26.0436 111.671 24.2176C111.671 22.3696 112.815 21.1156 114.498 21.1156C116.181 21.1156 117.326 22.3696 117.326 24.2176C117.326 26.0436 116.181 27.2976 114.498 27.2976ZM131.845 18.6736H128.703V24.7456C128.703 26.1536 127.739 27.2096 126.37 27.2096C125.091 27.2096 124.193 26.2416 124.193 24.8996V18.6736H121.074V25.5816C121.074 28.1116 122.735 29.9376 125.27 29.9376C126.819 29.9376 128.075 29.2776 128.703 28.2216V29.7616H131.845V18.6736ZM137.141 29.9376C139.789 29.9376 141.539 28.5516 141.539 26.4396C141.539 21.4236 135.346 23.9976 135.346 21.7316C135.346 21.0276 135.952 20.6536 136.827 20.6536C137.679 20.6536 138.555 21.1596 138.689 22.1056H141.405C141.293 19.9276 139.453 18.4976 136.738 18.4976C134.426 18.4976 132.699 19.8836 132.699 21.8416C132.699 26.5056 138.779 24.2836 138.779 26.5496C138.779 27.1656 138.106 27.6276 137.141 27.6276C135.974 27.6276 135.189 27.0116 135.077 26.0216H132.384C132.496 28.4196 134.382 29.9376 137.141 29.9376Z" fill="#13274D"/>
</svg>
