<svg width="28" height="28" viewBox="0 0 28 28" fill="none" xmlns="http://www.w3.org/2000/svg">
<g clip-path="url(#clip0_131_2853)">
<path d="M14.75 17.5C16.683 17.5 18.25 15.933 18.25 14C18.25 12.067 16.683 10.5 14.75 10.5C12.817 10.5 11.25 12.067 11.25 14C11.25 15.933 12.817 17.5 14.75 17.5Z" stroke="white" stroke-width="2" stroke-linecap="round" stroke-linejoin="round"/>
<path d="M27 7H2.5V21H27V7Z" stroke="white" stroke-width="2" stroke-linecap="round" stroke-linejoin="round"/>
<path d="M27 11.375C25.907 11.1897 24.8987 10.6691 24.1148 9.88521C23.3309 9.10132 22.8103 8.093 22.625 7" stroke="white" stroke-width="2" stroke-linecap="round" stroke-linejoin="round"/>
<path d="M22.625 21C22.8103 19.907 23.3309 18.8987 24.1148 18.1148C24.8987 17.3309 25.907 16.8103 27 16.625" stroke="white" stroke-width="2" stroke-linecap="round" stroke-linejoin="round"/>
<path d="M2.5 16.625C3.593 16.8103 4.60132 17.3309 5.38521 18.1148C6.1691 18.8987 6.68975 19.907 6.875 21" stroke="white" stroke-width="2" stroke-linecap="round" stroke-linejoin="round"/>
<path d="M6.875 7C6.68975 8.093 6.1691 9.10132 5.38521 9.88521C4.60132 10.6691 3.593 11.1897 2.5 11.375" stroke="white" stroke-width="2" stroke-linecap="round" stroke-linejoin="round"/>
</g>
<defs>
<clipPath id="clip0_131_2853">
<rect width="28" height="28" fill="white"/>
</clipPath>
</defs>
</svg>
